<?xml version="1.0" encoding="UTF-8"?><svg id="_лой_2" xmlns="http://www.w3.org/2000/svg" viewBox="0 0 222.76 81.61"><defs><style>.cls-1{fill:#b7b7b7;}.cls-2{opacity:.72;}</style></defs><g id="_лой_4"><g class="cls-2"><path class="cls-1" d="M155.09,56.39c-1.45-.76-2.75-1.69-3.7-3.07-.22-.32-.35-.71-.74-.97-.54,.48-.89,1.13-1.3,1.71-1.91,2.73-3.64,5.54-4.81,8.68-.32,.84-.54,1.73-.61,2.62-.15,1.93,1.17,2.92,2.97,2.23,.89-.35,1.65-.89,2.34-1.52,2.6-2.34,4.59-5.17,6.34-8.16,.56-.95,.54-.97-.5-1.52Z"/><path class="cls-1" d="M142.9,29.29c-.39,.84-.71,1.73-.74,2.68-.02,1.52,1.08,2.32,2.51,1.86,1.69-.52,3.07-1.54,4.37-2.73,2.23-2.08,3.9-4.55,5.24-7.23,1.17-2.32,1.93-4.81,2.1-7.06,.04-1.69,0-1.75-1.17-1.1-2.21,1.23-4.16,2.84-5.95,4.63-2.64,2.62-4.78,5.59-6.36,8.94Z"/><path class="cls-1" d="M160.07,46.85c-.11-1.84-1.21-2.53-2.94-1.88-1.04,.39-1.91,1.02-2.62,1.84s-1.23,1.75-1.3,2.9c-.17,2.66,1.75,4.16,3.62,4.96,.48,.19,.74-.06,.93-.45,.58-1.1,1.19-2.23,1.56-3.44,.35-1.15,.8-2.27,.76-3.49v-.43Z"/><path class="cls-1" d="M53.56,28.9c-2.23,.28-4.68,3.05-4.68,5.37-.02,.48,.13,.95,.41,1.39,.91,1.39,2.29,2.03,3.85,2.34,.48,.09,.74-.15,.93-.56,.97-1.88,1.62-3.87,1.75-5.97,.11-1.69-.67-2.75-2.27-2.55Z"/><path class="cls-1" d="M196.41,45.16c-.76,.11-1.47,.39-2.06,.91-1.06,.97-2.21,1.86-3.18,2.92-1.65,1.82-3.25,3.68-4.63,5.69-2.06,2.97-3.98,6.02-5.24,9.44-.26,.71-.5,1.45-.54,2.19-.06,1,.43,1.56,1.47,1.54h0c.58-.02,1.15-.45,1.69-.95,1.97-1.78,3.51-3.94,4.89-6.17,2.75-4.37,5.39-8.79,8.1-13.18,.22-.37,.45-.74,.58-1.15,.26-.82-.22-1.36-1.08-1.23Z"/><path class="cls-1" d="M83.43,51.78c1.04-.39,1.86-1.08,2.58-1.91,1.73-1.99,3.25-4.13,4.68-6.34,2.71-4.22,5.26-8.53,7.73-12.88,.63-1.04,.3-1.6-.93-1.6-.39-.02-.82,.15-1.26,.35-1.13,.52-1.86,1.45-2.68,2.32-3.85,4.13-7.1,8.72-9.89,13.62-.89,1.56-1.71,3.18-1.99,5-.19,1.32,.54,1.93,1.78,1.45Z"/><path class="cls-1" d="M0,0V81.61H222.76V0H0ZM109.24,31.48c.91-1.52,1.84-3.01,2.77-4.52,.24-.39,.54-.54,1-.52,.87,.02,1.73,.02,2.6,.02h0c.82,0,1.67-.02,2.49,0,.54,.02,.65,.19,.35,.67-.95,1.58-1.93,3.12-2.9,4.7-.24,.39-.54,.54-.97,.52-1.62,0-3.25,.02-4.87-.02-.74,0-.84-.19-.45-.84Zm-52.34,5.24c-.15,.35-.43,.67-.35,1.17,.58,.04,1.06-.19,1.54-.43,1.84-.89,3.42-2.12,4.96-3.44,1.75-1.52,3.29-3.23,5.11-4.65,1.73-1.36,3.55-2.6,5.67-3.29,1.36-.45,2.77-.48,4.16-.15,2.29,.54,3.55,2.88,2.99,5.48-.43,1.99-1.41,3.7-2.79,5.17-.45,.48-.97,.87-1.6,1.06-1.67,.52-2.92-.61-2.55-2.29,.45-2.14,1.71-3.55,3.87-4.03,.54-.13,.97-.22,.95-.91-.02-.67-.39-1.19-1.06-1.3-.61-.11-1.21,0-1.8,.24-1.3,.52-2.32,1.45-3.33,2.38-4.65,4.29-7.9,9.5-10.2,15.37-.43,1.08-.74,2.19-.65,3.38,.15,2.47,1.65,3.57,4.03,2.88,1.78-.52,3.2-1.62,4.55-2.84,3.51-3.18,6.47-6.86,9.29-10.67,2.34-3.16,4.83-6.21,7.71-8.9,2.08-1.95,4.24-3.81,7.01-4.78,.54-.19,1.1-.32,1.69-.39,1.3-.15,2.42,.19,3.38,1.08,.26,.17,.43,.48,.91,.63,.32-.97,1.06-1.06,1.93-1.02,1.36,.04,2.75,.02,4.11,.02s1.36,.11,.67,1.26c-1.49,2.51-3.01,5-4.52,7.51-2.9,4.83-5.8,9.63-8.7,14.46-.19,.35-.39,.69-.43,1.1-.09,.82,.35,1.19,1.1,.89,.39-.15,.76-.41,1.13-.65,2.1-1.43,3.79-3.31,5.41-5.26,.78-.93,1.54-1.91,2.32-2.86,.5-.63,1.82-.97,2.53-.67,.19,.09,.26,.26,.15,.43-.15,.24-.32,.48-.5,.71-2.14,2.9-4.33,5.78-6.84,8.36-2.25,2.32-4.59,4.61-7.58,6.02-.95,.45-1.95,.82-3.01,.67-1.54-.22-2.58-1.36-2.71-3.03-.04-.45,0-.93,0-1.49-.52,.17-.71,.54-1,.8-1.26,1.21-2.64,2.23-4.22,2.99-1.06,.5-2.16,.74-3.36,.69-2.1-.09-3.4-1.36-3.51-3.49-.06-1.13,.09-2.23,.3-3.33,.06-.3,.24-.61,.06-1.02-1.13,1.02-2.12,2.1-3.29,3.01-1.75,1.39-3.53,2.75-5.59,3.7-1.86,.84-3.77,1.45-5.87,1.1-2.55-.43-4.74-2.49-5.02-5.35-.24-2.51,.35-4.87,1.23-7.17,.76-1.99,1.69-3.9,2.94-5.95-1.1,.26-1.95,.45-2.81,.65-.37,.09-.5,.39-.65,.67-2.21,3.87-4.96,7.34-8.01,10.56-1.52,1.6-3.12,3.1-4.91,4.37-1.28,.89-2.62,1.65-4.13,2.06-3.36,.93-6.1-1-6.36-4.48-.15-2.06,.17-4.05,.8-5.97,1.43-4.29,3.72-8.1,6.54-11.63,1.99-2.49,4.2-4.76,6.73-6.69,1.91-1.45,3.94-2.68,6.23-3.4,.97-.3,1.97-.5,2.99-.35,2.32,.3,3.72,1.84,3.85,4.2,.13,2.4-.56,4.63-1.49,6.8Zm40.09,37.32c-4.22-2.03-8.64-3.23-13.38-2.99-2.49,.13-4.74,.84-6.6,2.55-.28,.26-.54,.56-.8,.87-.76,.91-.78,.93-1.43-.02-1.1-1.6-2.53-2.84-4.24-3.79-2.47-1.39-5.15-1.99-7.97-2.23-5.22-.43-10.28,.45-15.31,1.67-5.5,1.34-11,2.68-16.58,3.66-2.6,.45-5.22,.78-7.86,.35-4.68-.78-8.64-2.75-11.37-6.75-1.19-1.73-1.69-3.72-2.03-5.76-.8-4.65-.17-9.2,1.26-13.64,1.75-5.48,4.5-10.43,7.84-15.11,2.99-4.2,6.45-7.97,10.22-11.43,4.59-4.22,9.66-7.79,15.52-10.07,2.4-.93,4.87-1.54,7.49-1.54,3.87,.02,6.1,2.45,5.56,6.23-.32,2.25-1.3,4.26-2.94,5.89-.61,.58-1.3,1.02-2.16,1.17-1.13,.19-2.08-.45-2.32-1.58-.37-1.75,.56-3.77,2.19-4.68,.67-.37,1.36-.67,2.12-.76,.52-.06,.71-.39,.76-.89,.11-1.26-.58-2.08-1.86-2.16-.91-.06-1.8,.11-2.66,.39-3.29,1.1-6.17,2.97-8.79,5.22-6,5.17-11,11.24-15.35,17.82-2.88,4.35-5.11,9.05-6.49,14.09-.87,3.16-1.52,6.39-1.28,9.72,.19,2.77,1.17,5.17,3.27,7.08,1.19,1.06,2.58,1.73,4.07,2.16,1.34,.39,2.73,.65,4.16,.71,4.5,.24,8.92-.43,13.29-1.45,5.69-1.34,11.37-2.68,17.06-4.03,4.16-1,8.36-1.69,12.62-1.6,7.32,.15,14.07,2.1,20.18,6.21,2.16,1.45,4.11,3.16,5.95,5,.35,.3,.69,.63,.89,1.3-1.1-.61-2.03-1.15-3.01-1.62Zm24.35-.91c-2.53,1.19-5.24,1.65-8.01,1-3.57-.87-5.82-3.23-6.99-6.6-1.34-3.85-1.15-7.77,.11-11.58,1.67-5.13,4.05-9.94,6.75-14.61,2.08-3.57,4.39-6.95,7.01-10.13,4.13-5.04,8.79-9.55,14.09-13.36,3.42-2.45,6.99-4.59,10.87-6.21,2.49-1.04,5.09-1.58,7.79-1.56,1.45,.02,2.79,.43,3.92,1.32,.48,.37,.84,.39,1.36,.19,2.38-.93,4.87-1.36,7.4-1.45,3.62-.13,7.01,.74,10.17,2.45,3.49,1.88,6.97,3.81,10.43,5.72,.13,.06,.26,.13,.37,.22,.58,.39,.58,.45,.09,.97-1.36,1.39-2.75,2.75-4.09,4.18-.45,.48-.84,.43-1.32,.13l-4.94-2.92c-2.16-1.3-4.33-2.62-6.49-3.87-2.38-1.39-4.96-2.32-7.66-2.88-.89-.19-1.8-.22-2.68-.02-.41,.09-.69,.26-.69,.78-.09,4.42-1.65,8.4-3.77,12.17-1.62,2.88-3.72,5.39-6.52,7.27-1.21,.8-2.51,1.43-3.9,1.82-2.42,.71-4.35-.67-4.5-3.2-.09-1.58,.28-3.07,.87-4.52,1.62-4.03,4.33-7.3,7.43-10.26,1.73-1.65,3.62-3.1,5.63-4.37,.15-.17,.32-.28,.65-.5-.76-.5-1.45-.37-2.12-.28-1.69,.22-3.16,.95-4.63,1.78-3.72,2.06-6.99,4.72-10.07,7.62-4,3.77-7.71,7.79-10.93,12.25-3.55,4.87-6.73,9.98-9.11,15.54-1.52,3.57-2.64,7.25-3.14,11.11-.24,1.93,0,3.83,1.13,5.5,1.26,1.88,3.44,2.75,5.67,2.29,1.21-.26,2.34-.76,3.38-1.41,2.86-1.82,5.24-4.18,7.27-6.86,1.91-2.51,3.51-5.2,4.59-8.18,.52-1.47,.89-2.97,1-4.52,.02-.22,.02-.43,0-.65-.13-2.21-1.58-2.97-3.49-1.78-1.43,.89-2.47,2.21-3.38,3.59-1.1,1.71-1.86,3.59-2.32,5.56-.13,.54-.37,.87-.89,1.13-2.79,1.34-5.2,3.23-7.4,5.37-.11,.11-.22,.19-.32,.28-.04,.04-.13,.02-.19,.04-.24-.15-.15-.39-.13-.58,.54-3.79,1.6-7.4,3.66-10.67,2.08-3.31,4.81-5.93,8.33-7.66,1.58-.78,3.23-1.28,5.02-.84,1.39,.35,2.36,1.19,2.9,2.53,.58,1.45,.52,2.97,.39,4.48-.24,2.88-1.41,5.43-2.71,7.94-1.32,2.58-2.88,5-4.72,7.23-3.1,3.79-6.71,6.97-11.17,9.05Zm85.16-29.98l-5.07,8.57c-2.86,4.85-5.74,9.68-8.44,14.61-.26,.45-.65,1-.17,1.47,.48,.5,1.02,.11,1.47-.17,1.23-.76,2.32-1.71,3.29-2.79,1.84-2.03,3.53-4.2,5.13-6.41,.52-.71,1.58-1.04,2.38-.74,.26,.11,.32,.28,.22,.5-.09,.19-.22,.37-.35,.56-2.29,3.51-4.89,6.78-7.79,9.81-1.58,1.62-3.25,3.18-5.22,4.35-1.06,.63-2.16,1.13-3.4,1.34-2.08,.37-3.66-.67-3.83-2.75-.04-.61-.13-1.19-.19-1.82-.52,0-.71,.39-1,.65-1.52,1.34-3.12,2.55-4.96,3.46-.97,.48-1.99,.65-3.05,.48-1.67-.28-2.84-1.56-3.07-3.31-.13-.89-.06-1.78-.06-2.77-.48,.17-.67,.52-.95,.8-1.49,1.58-3.03,3.1-4.89,4.22-.84,.52-1.75,.87-2.71,1.06-2.29,.45-4.44-1.3-4.85-3.85-.26-1.69-.02-3.31,.37-4.94,.54-2.32,1.36-4.57,2.12-6.82,.09-.24,.17-.48,.24-.71,.26-.87,.22-.89-.71-.78-.11,.02-.22,.02-.32,.04-2.51,.17-2.03-.02-3.29,1.99-1.97,3.16-4.09,6.19-6.69,8.9-1.99,2.08-4.2,3.83-6.73,5.2-1.02,.56-2.12,.89-3.29,1.02-2.36,.24-4.09-1-4.61-3.31-.48-2.14-.15-4.24,.48-6.3,1.04-3.36,2.55-6.52,4.55-9.42,2.08-3.01,4.29-5.89,6.99-8.36,2.14-1.97,4.5-3.62,7.21-4.68,.95-.37,1.93-.58,2.94-.56,2.64,.02,3.96,1.32,4.11,3.98,.11,1.91-.24,3.72-.91,5.5-.39,1.04-.82,2.08-1.32,3.07-.13,.24-.39,.52-.22,.8,.22,.35,.61,.09,.91,.06,.26,0,.5-.09,.74-.13,1.06-.19,1.75-.78,2.25-1.78,3.03-6.02,6.45-11.84,10.3-17.38,4.72-6.78,10.07-13.01,16.3-18.42,2.55-2.21,5.13-4.44,8.27-5.87,1.23-.56,2.49-.97,3.85-.91,1.6,.06,2.34,.8,2.42,2.42,.06,1.21-.22,2.36-.63,3.49-.22,.56-.5,1.13-.76,1.67-.61,1.17-1.39,1.54-2.86,1.36h0c.09-.54,.41-1,.65-1.45,.52-1.04,1.04-2.06,1.32-3.18,.11-.48,.3-1.06-.13-1.43-.5-.43-1.04-.06-1.49,.19-1.23,.71-2.32,1.6-3.38,2.51-3.25,2.75-6.15,5.87-8.81,9.2-4.94,6.19-9.29,12.77-13.27,19.59-.8,1.36-1.6,2.73-2.29,4.29,.61,0,.95-.35,1.3-.61,1.93-1.47,3.79-3.01,5.56-4.63,2.88-2.62,5.65-5.35,8.33-8.18,2.01-2.12,3.94-4.31,5.74-6.62,.84-1.08,1.52-1.32,3.05-1.04-.41,.97-1.08,1.78-1.73,2.58-3.68,4.55-7.62,8.85-11.84,12.9-3.66,3.49-7.56,6.71-11.73,9.55-.78,.52-1.32,1.13-1.71,2.01-1.06,2.4-2.06,4.85-2.86,7.36-.28,.89-.52,1.8-.67,2.73-.11,.61-.09,1.21,.06,1.82,.3,1.15,1.08,1.54,2.1,.91,1.13-.67,1.99-1.67,2.81-2.66,2.16-2.58,3.94-5.43,5.82-8.2,2.53-3.7,5.24-7.25,8.51-10.35,1.71-1.62,3.59-3.01,5.63-4.18,1.1-.63,2.34-.95,3.62-.97,1.52-.02,2.75,.5,3.57,1.82,.04,.09,.15,.13,.22,.17,.06-.02,.11-.02,.13-.02,.54-1.3,1.6-1.43,2.84-1.36,1.32,.09,2.66,0,4,.02,.76,.02,.84,.15,.45,.82Zm12.43-31.93c-3.18,5.26-7.38,9.48-12.79,12.45-3.51,1.93-7.21,3.27-11.24,3.64-1.67,.15-3.31,.06-4.96-.28-.82-.17-.89-.32-.39-.95,1.26-1.58,2.58-3.12,3.96-4.59,.35-.37,.76-.35,1.19-.35,1.58,0,3.16,.06,4.76-.15,3.64-.5,6.95-1.84,10.15-3.55,3.29-1.78,6.21-4.05,8.94-6.6,.11-.11,.22-.19,.32-.28,.04-.06,.11-.06,.24-.11h0c.11,.37-.06,.56-.19,.78Z"/><path class="cls-1" d="M51.72,40.03c-.11-.04-.19-.06-.3-.11-1.88-.74-3.53-1.78-4.68-3.51-.11-.11-.19-.22-.37-.24h0c-.06,.02-.15,.04-.17,.09-2.14,2.99-4.16,6.06-5.56,9.46-.52,1.26-.93,2.58-.89,3.98,.04,1.54,.97,2.25,2.51,1.93,1.15-.24,2.03-.89,2.88-1.65,2.53-2.29,4.48-5.07,6.28-7.92,.22-.32,.43-.67,.63-1.02,.37-.67,.35-.76-.32-1.02Z"/></g></g></svg>