<?xml version="1.0" encoding="UTF-8"?><svg id="_лой_2" xmlns="http://www.w3.org/2000/svg" viewBox="0 0 55.43 55.43"><defs><style>.cls-1{fill:#313441;}.cls-2{fill:#f0f1f3;}</style></defs><g id="_лой_4"><g><rect class="cls-2" width="55.43" height="55.43" rx="16.19" ry="16.19"/><path class="cls-1" d="M40.81,15.74c4.26,6.26,6.36,13.33,5.58,21.46,0,.03-.02,.07-.05,.09-3.23,2.37-6.35,3.81-9.43,4.76-.05,.01-.1,0-.13-.04-.71-.99-1.36-2.03-1.93-3.13-.03-.06,0-.14,.06-.17,1.03-.39,2-.85,2.94-1.4,.07-.04,.08-.15,.01-.2-.2-.15-.4-.3-.59-.46-.04-.03-.08-.03-.12-.02-6.1,2.82-12.78,2.82-18.95,0-.04-.02-.09-.01-.12,.02-.19,.16-.39,.31-.58,.46-.07,.05-.06,.16,.01,.2,.94,.54,1.92,1.01,2.94,1.4,.07,.03,.1,.1,.07,.17-.55,1.1-1.2,2.14-1.93,3.13-.03,.04-.08,.06-.13,.04-3.07-.95-6.19-2.39-9.42-4.76-.03-.02-.05-.05-.05-.09-.66-7.03,.68-14.16,5.57-21.46,.01-.02,.03-.03,.05-.04,2.41-1.1,4.98-1.92,7.68-2.38,.05,0,.1,.02,.12,.06,.33,.59,.71,1.34,.97,1.96,2.84-.43,5.72-.43,8.62,0,.26-.6,.62-1.37,.96-1.96,.02-.04,.07-.07,.12-.06,2.69,.47,5.27,1.28,7.68,2.38,.02,0,.04,.02,.05,.04h0Zm-15.98,13.37c.03-2.08-1.49-3.8-3.39-3.8s-3.39,1.71-3.39,3.8,1.53,3.8,3.39,3.8,3.39-1.71,3.39-3.8Zm12.53,0c.03-2.08-1.49-3.8-3.39-3.8s-3.39,1.71-3.39,3.8,1.53,3.8,3.39,3.8,3.39-1.71,3.39-3.8Z"/></g></g></svg>