<?xml version="1.0" encoding="UTF-8"?><svg id="_лой_2" xmlns="http://www.w3.org/2000/svg" viewBox="0 0 55.43 55.43"><defs><style>.cls-1{fill:#313441;}.cls-2{fill:#f0f1f3;}</style></defs><g id="_лой_4"><g><rect class="cls-2" width="55.43" height="55.43" rx="16.19" ry="16.19"/><path class="cls-1" d="M27.5,10.86c-9.28,0-16.81,7.49-16.81,16.73s7.53,16.73,16.81,16.73,16.81-7.49,16.81-16.73c0-1.15-.13-2.27-.35-3.35l-.09-.37H27.5v5.58h11.21c-.89,5.28-5.66,9.3-11.21,9.3-6.19,0-11.21-4.99-11.21-11.16s5.02-11.16,11.21-11.16c2.8,0,5.36,1.03,7.32,2.72l4.02-3.91c-2.99-2.72-6.97-4.39-11.34-4.39Z"/></g></g></svg>