<?xml version="1.0" encoding="UTF-8"?><svg id="_лой_2" xmlns="http://www.w3.org/2000/svg" viewBox="0 0 247.93 81.61"><defs><style>.cls-1{fill:#b7b7b7;}</style></defs><g id="_лой_4"><g><path class="cls-1" d="M106.1,42.95c0,11.74-9.19,20.39-20.46,20.39s-20.46-8.65-20.46-20.39,9.19-20.39,20.46-20.39,20.46,8.57,20.46,20.39Zm-8.96,0c0-7.34-5.32-12.36-11.5-12.36s-11.5,5.02-11.5,12.36,5.32,12.36,11.5,12.36,11.5-5.1,11.5-12.36Z"/><path class="cls-1" d="M150.23,42.95c0,11.74-9.19,20.39-20.46,20.39s-20.46-8.65-20.46-20.39,9.19-20.39,20.46-20.39,20.46,8.57,20.46,20.39Zm-8.96,0c0-7.34-5.32-12.36-11.5-12.36s-11.5,5.02-11.5,12.36,5.32,12.36,11.5,12.36,11.5-5.1,11.5-12.36Z"/><path class="cls-1" d="M192.53,23.79V60.4c0,15.06-8.88,21.21-19.38,21.21-9.88,0-15.83-6.61-18.08-12.02l7.8-3.25c1.39,3.32,4.79,7.24,10.27,7.24,6.72,0,10.89-4.15,10.89-11.95v-2.93h-.31c-2,2.47-5.87,4.63-10.74,4.63-10.2,0-19.54-8.88-19.54-20.31s9.34-20.47,19.54-20.47c4.86,0,8.73,2.16,10.74,4.56h.31v-3.32h8.51Zm-7.87,19.23c0-7.18-4.79-12.43-10.89-12.43s-11.36,5.25-11.36,12.43,5.18,12.28,11.36,12.28,10.89-5.18,10.89-12.28Z"/><path class="cls-1" d="M206.55,2.33V62.09h-8.74V2.33h8.74Z"/><path class="cls-1" d="M240.59,49.66l6.95,4.63c-2.24,3.32-7.65,9.04-16.99,9.04-11.59,0-20.24-8.96-20.24-20.39,0-12.13,8.73-20.39,19.24-20.39s15.76,8.42,17.45,12.97l.93,2.32-27.26,11.29c2.09,4.09,5.33,6.18,9.88,6.18s7.72-2.24,10.04-5.65h0Zm-21.4-7.34l18.22-7.57c-1-2.55-4.02-4.32-7.57-4.32-4.55,0-10.89,4.02-10.66,11.89Z"/><path class="cls-1" d="M32.12,37.64v-8.65h29.16c.29,1.51,.43,3.29,.43,5.22,0,6.49-1.77,14.52-7.49,20.24-5.56,5.79-12.67,8.88-22.09,8.88-17.45,0-32.13-14.22-32.13-31.67S14.67,0,32.13,0c9.65,0,16.53,3.79,21.7,8.73l-6.11,6.11c-3.71-3.48-8.73-6.18-15.6-6.18-12.74,0-22.71,10.27-22.71,23.01s9.97,23.01,22.71,23.01c8.27,0,12.97-3.32,15.99-6.34,2.45-2.45,4.05-5.94,4.69-10.71h-20.68Z"/></g></g></svg>