<?xml version="1.0" encoding="UTF-8"?><svg id="_лой_2" xmlns="http://www.w3.org/2000/svg" viewBox="0 0 55.43 55.43"><defs><style>.cls-1{fill:#313441;}.cls-2{fill:#f0f1f3;}</style></defs><g id="_лой_4"><g><rect class="cls-2" x="0" width="55.43" height="55.43" rx="16.19" ry="16.19"/><path class="cls-1" d="M27.76,19.19c-4.75,0-8.58,3.83-8.58,8.58s3.83,8.58,8.58,8.58,8.58-3.83,8.58-8.58-3.83-8.58-8.58-8.58Zm0,14.16c-3.07,0-5.58-2.5-5.58-5.58s2.5-5.58,5.58-5.58,5.58,2.5,5.58,5.58-2.51,5.58-5.58,5.58h0Zm10.93-14.51c0,1.11-.9,2-2,2s-2-.9-2-2,.9-2,2-2,2,.9,2,2Zm5.68,2.03c-.13-2.68-.74-5.06-2.7-7.01-1.96-1.96-4.33-2.57-7.01-2.7-2.76-.16-11.05-.16-13.81,0-2.67,.13-5.05,.74-7.01,2.7s-2.57,4.33-2.7,7.01c-.16,2.76-.16,11.05,0,13.81,.13,2.68,.74,5.06,2.7,7.01,1.96,1.96,4.33,2.57,7.01,2.7,2.76,.16,11.05,.16,13.81,0,2.68-.13,5.06-.74,7.01-2.7,1.96-1.96,2.57-4.33,2.7-7.01,.16-2.76,.16-11.04,0-13.8h0Zm-3.57,16.77c-.58,1.46-1.71,2.59-3.18,3.18-2.2,.87-7.43,.67-9.87,.67s-7.67,.19-9.87-.67c-1.46-.58-2.59-1.71-3.18-3.18-.87-2.2-.67-7.43-.67-9.87s-.19-7.67,.67-9.87c.58-1.46,1.71-2.59,3.18-3.18,2.2-.87,7.43-.67,9.87-.67s7.67-.19,9.87,.67c1.46,.58,2.59,1.71,3.18,3.18,.87,2.2,.67,7.43,.67,9.87s.2,7.67-.67,9.87Z"/></g></g></svg>