<?xml version="1.0" encoding="UTF-8"?><svg id="_лой_2" xmlns="http://www.w3.org/2000/svg" viewBox="0 0 287.68 81.61"><defs><style>.cls-1{fill:#b7b7b7;}.cls-2{opacity:.72;}</style></defs><g id="_лой_4"><g class="cls-2"><path class="cls-1" d="M14.81,.28C8.92,2.75,2.45,9.71,.4,18.45c-2.59,11.07,8.19,15.76,9.07,14.22,1.04-1.8-1.93-2.41-2.54-8.16-.79-7.42,2.66-15.71,7-19.35,.81-.68,.77,.26,.77,2.01,0,3.11-.17,31.05-.17,36.88,0,7.89-.33,10.38-.91,12.84-.59,2.49-1.55,4.18-.82,4.83,.81,.73,4.25-1,6.25-3.79,2.39-3.34,3.23-7.35,3.38-11.7,.18-5.25,.17-13.58,.18-18.33,0-4.36,.07-17.12-.08-24.79-.04-1.88-5.25-3.86-7.72-2.82ZM286.39,41.73c-.85,0-1.24,.88-1.57,2.36-1.12,5.15-2.29,6.32-3.81,6.32-1.69,0-3.22-2.55-3.61-7.66-.31-4.02-.26-11.41,.14-18.77,.08-1.51-.34-3.01-4.39-4.48-1.74-.63-4.28-1.57-5.54,1.48-3.57,8.61-4.96,15.44-5.29,18.22-.02,.14-.19,.17-.22-.16-.21-2.22-.68-6.26-.74-14.76-.01-1.66-.36-3.07-2.19-4.22-1.19-.75-4.79-2.07-6.09-.5-1.12,1.29-2.43,4.76-3.78,8.87-1.1,3.34-1.86,5.6-1.86,5.6,0,0,.01-9.02,.03-12.44,0-1.29-.88-1.72-1.15-1.8-1.2-.35-3.57-.93-4.57-.93-1.24,0-1.54,.69-1.54,1.7,0,.13-.2,11.87-.2,20.08,0,.36,0,.75,0,1.16-.69,3.77-2.91,8.9-5.33,8.9s-3.56-2.14-3.56-11.93c0-5.71,.17-8.19,.26-12.32,.05-2.38,.14-4.21,.14-4.62-.02-1.27-2.22-1.91-3.24-2.15-1.03-.24-1.92-.33-2.62-.29-.99,.06-1.68,.7-1.68,1.59,0,.48,0,1.38,0,1.38-1.27-2-3.32-3.39-4.68-3.79-3.66-1.09-7.49-.12-10.37,3.91-2.29,3.21-3.67,6.84-4.22,12.05-.4,3.81-.27,7.68,.44,10.95-.85,3.69-2.44,5.2-4.17,5.2-2.52,0-4.35-4.11-4.13-11.22,.14-4.68,1.08-7.96,2.1-12.71,.44-2.03,.08-3.08-.81-4.1-.82-.93-2.55-1.41-5.05-.82-1.78,.42-4.32,.87-6.65,1.21,0,0,.14-.56,.26-1.55,.61-5.18-5.02-4.76-6.82-3.11-1.07,.99-1.8,2.15-2.08,4.25-.44,3.32,2.27,4.89,2.27,4.89-.89,4.07-3.07,9.39-5.32,13.24-1.21,2.06-2.13,3.59-3.32,5.21,0-.6,0-1.21,0-1.81-.03-8.56,.09-15.3,.14-17.73,.05-2.38,.14-4.16,.14-4.57-.01-.93-.56-1.28-1.69-1.73-1-.39-2.18-.67-3.4-.76-1.55-.12-2.48,.7-2.45,1.67,0,.18,0,1.31,0,1.31-1.27-2-3.32-3.39-4.68-3.79-3.66-1.09-7.49-.12-10.37,3.91-2.29,3.21-3.79,7.71-4.22,12.01-.4,4.02-.32,7.43,.22,10.31-.58,2.88-2.26,5.89-4.15,5.89-2.42,0-3.8-2.14-3.8-11.93,0-5.71,.17-8.19,.26-12.32,.05-2.38,.14-4.21,.14-4.62-.02-1.27-2.22-1.91-3.24-2.15-1.07-.25-1.99-.34-2.7-.29-.94,.07-1.59,.91-1.59,1.53v1.44c-1.27-2-3.32-3.39-4.68-3.79-3.66-1.09-7.47-.11-10.37,3.91-1.89,2.62-3.43,5.53-4.22,11.96-.23,1.86-.33,3.6-.32,5.23-.76,4.62-4.09,9.94-6.82,9.94-1.6,0-3.12-3.1-3.12-9.7,0-8.79,.54-21.31,.64-22.52,0,0,3.45-.06,4.12-.07,1.72-.02,3.28,.02,5.57-.1,1.15-.06,2.26-4.18,1.07-4.69-.54-.23-4.34-.43-5.84-.47-1.27-.03-4.79-.29-4.79-.29,0,0,.32-8.31,.39-9.19,.06-.73-.88-1.11-1.43-1.34-1.32-.56-2.5-.83-3.9-1.11-1.93-.4-2.81,0-2.98,1.62-.26,2.48-.39,9.73-.39,9.73-1.42,0-6.27-.28-7.69-.28-1.32,0-2.74,5.67-.92,5.74,2.1,.08,5.75,.15,8.18,.22,0,0-.11,12.73-.11,16.66,0,.42,0,.82,0,1.21-1.33,6.95-6.03,10.71-6.03,10.71,1.01-4.6-1.05-8.05-4.76-10.98-1.37-1.08-4.07-3.12-7.09-5.35,0,0,1.75-1.72,3.3-5.2,1.1-2.46,1.15-5.27-1.55-5.89-4.46-1.03-8.14,2.25-9.23,5.75-.85,2.71-.4,4.72,1.27,6.81,.12,.15,.25,.31,.39,.46-1.01,1.94-2.39,4.55-3.56,6.58-3.25,5.62-5.71,10.07-7.56,10.07-1.48,0-1.46-4.52-1.46-8.75,0-3.65,.27-9.13,.48-14.8,.07-1.88-.87-2.95-2.44-3.91-.96-.59-3-1.75-4.18-1.75-1.77,0-6.87,.24-11.69,14.19-.61,1.76-1.8,4.96-1.8,4.96l.1-16.77c0-.39-.21-.77-.69-1.03-.81-.44-2.98-1.34-4.91-1.34-.92,0-1.38,.43-1.38,1.28l-.17,26.24c0,1.99,.05,4.32,.25,5.34,.2,1.02,.51,1.85,.91,2.34,.39,.49,.85,.87,1.6,1.02,.7,.14,4.52,.63,4.72-.83,.24-1.75,.25-3.65,2.26-10.71,3.13-11,7.2-16.37,9.12-18.27,.33-.33,.72-.35,.7,.19-.08,2.41-.37,8.44-.56,13.56-.52,13.7,1.97,16.24,5.53,16.24,2.72,0,6.57-2.71,10.68-9.56,2.57-4.27,5.06-8.46,6.85-11.48,1.25,1.16,2.65,2.4,4.05,3.73,3.25,3.09,4.32,6.02,3.61,8.8-.54,2.13-2.58,4.32-6.21,2.19-1.06-.62-1.51-1.1-2.57-1.8-.57-.38-1.44-.49-1.97-.09-1.36,1.03-2.14,2.33-2.58,3.94-.43,1.57,1.14,2.4,2.77,3.13,1.4,.63,4.42,1.19,6.35,1.26,7.5,.25,13.51-3.62,17.69-13.61,.75,8.63,3.93,13.51,9.47,13.51,3.7,0,7.41-4.78,9.03-9.49,.47,1.92,1.16,3.59,2.05,5,4.27,6.76,12.54,5.3,16.7-.43,1.28-1.77,1.48-2.41,1.48-2.41,.61,5.42,4.97,7.31,7.47,7.31,2.8,0,5.69-1.32,7.71-5.88,.23,.49,.49,.96,.78,1.42,4.27,6.76,12.54,5.3,16.7-.43,.2-.27,.37-.51,.51-.73l.12,3.56-3.83,3.51c-6.41,5.88-11.29,10.34-11.65,15.53-.46,6.62,4.91,9.08,8.98,9.4,4.31,.34,8.01-2.04,10.28-5.38,2-2.94,3.3-9.25,3.21-15.5-.04-2.5-.1-5.68-.15-9.08,2.25-2.61,4.79-5.92,7.12-9.79,2.55-4.22,5.27-9.88,6.67-14.28,0,0,2.37,.02,4.9-.15,.81-.05,1.04,.11,.89,.71-.18,.72-3.2,12.35-.44,20.09,1.88,5.3,6.13,7.01,8.65,7.01,2.95,0,5.77-2.23,7.28-5.53,.18,.37,.37,.72,.58,1.05,4.27,6.76,12.51,5.3,16.7-.43,.94-1.29,1.48-2.41,1.48-2.41,.9,5.61,5.26,7.34,7.76,7.34s5.07-1.07,7.08-5.81c.08,2.09,.22,3.79,.42,4.33,.13,.33,.87,.74,1.4,.94,2.38,.88,4.81,.47,5.71,.28,.62-.13,1.11-.63,1.17-1.91,.17-3.38,.07-9.07,1.09-13.3,1.72-7.09,3.33-9.84,4.09-11.21,.43-.76,.91-.89,.93-.08,.04,1.63,.12,6.43,.78,12.88,.49,4.74,1.14,7.55,1.65,8.43,1.44,2.54,3.21,2.66,4.65,2.66,.92,0,2.84-.25,2.67-1.87-.08-.79,.06-5.65,1.76-12.64,1.11-4.56,2.96-8.69,3.62-10.19,.25-.56,.36-.12,.36-.03-.14,3.14-.46,13.42,.82,19.04,1.74,7.62,6.76,8.47,8.51,8.47,3.73,0,6.79-2.84,7.82-10.32,.25-1.8-.12-3.19-1.22-3.19h0Zm-156.45-4.62c-.21,3.96-.99,7.26-2.22,9.67-2.24,4.35-6.68,5.73-8.63-.56-1.41-4.53-.93-10.71-.34-14.04,.87-4.95,3.05-8.46,6.45-8.13,3.49,.34,5.19,4.83,4.75,13.06Zm34.14,.06c-.2,3.74-1.17,7.49-2.22,9.61-2.18,4.38-6.74,5.75-8.63-.56-1.29-4.31-.98-9.88-.34-13.39,.83-4.56,2.84-8.78,6.45-8.78,3.51,0,5.24,3.85,4.75,13.12Zm.89,25.49c-.05,6.82-1.12,12.79-3.42,14.53-3.26,2.46-7.65,.61-6.74-4.36,.8-4.4,4.6-8.89,10.17-14.39,0,0,.01,1.25,0,4.22Zm58.93-25.45c-.19,4.1-1.1,7.31-2.22,9.57-2.18,4.38-6.71,5.74-8.63-.56-1.05-3.43-1.1-9.16-.34-13.95,.77-4.88,2.91-8.56,6.45-8.23,3.5,.33,5.13,4.83,4.75,13.16Z"/></g></g></svg>