<?xml version="1.0" encoding="UTF-8"?><svg id="_лой_2" xmlns="http://www.w3.org/2000/svg" viewBox="0 0 55.43 55.43"><defs><style>.cls-1{fill:#313441;}.cls-2{fill:#f0f1f3;}</style></defs><g id="_лой_4"><g><rect class="cls-2" width="55.43" height="55.43" rx="16.19" ry="16.19"/><g><path id="Logo0" class="cls-1" d="M11.4,32.02c0,1.59,.35,2.82,.81,3.56,.6,.97,1.49,1.38,2.4,1.38,1.17,0,2.25-.29,4.32-3.16,1.66-2.3,3.61-5.52,4.93-7.54l2.23-3.42c1.55-2.38,3.34-5.02,5.39-6.81,1.68-1.46,3.49-2.27,5.31-2.27,3.06,0,5.97,1.77,8.2,5.09,2.44,3.64,3.62,8.22,3.62,12.95,0,2.81-.55,4.88-1.5,6.51-.91,1.58-2.69,3.15-5.67,3.15v-4.5c2.56,0,3.2-2.35,3.2-5.04,0-3.83-.89-8.09-2.86-11.12-1.4-2.16-3.21-3.47-5.2-3.47-2.15,0-3.89,1.62-5.84,4.52-1.04,1.54-2.1,3.41-3.29,5.53l-1.31,2.33c-2.64,4.68-3.31,5.75-4.63,7.51-2.31,3.08-4.29,4.25-6.89,4.25-3.09,0-5.04-1.34-6.24-3.35-.99-1.64-1.47-3.79-1.47-6.25l4.51,.16Z"/><path id="Logo1" class="cls-1" d="M10.44,19.16c2.07-3.18,5.05-5.41,8.47-5.41,1.98,0,3.95,.59,6,2.26,2.25,1.83,4.64,4.86,7.63,9.84l1.07,1.79c2.59,4.31,4.06,6.53,4.92,7.57,1.11,1.34,1.88,1.74,2.89,1.74,2.56,0,3.2-2.35,3.2-5.04l3.97-.12c0,2.81-.55,4.88-1.5,6.51-.91,1.58-2.69,3.15-5.67,3.15-1.86,0-3.5-.4-5.32-2.12-1.4-1.32-3.03-3.66-4.29-5.76l-3.74-6.25c-1.88-3.14-3.6-5.47-4.6-6.53-1.07-1.14-2.45-2.51-4.65-2.51-1.78,0-3.29,1.25-4.56,3.16l-3.84-2.28Z"/><path id="Logo2" class="cls-1" d="M18.84,18.28c-1.78,0-3.29,1.25-4.56,3.16-1.79,2.7-2.88,6.72-2.88,10.58,0,1.59,.35,2.82,.81,3.56l-3.84,2.53c-.99-1.64-1.47-3.79-1.47-6.25,0-4.46,1.22-9.11,3.55-12.7,2.07-3.18,5.05-5.41,8.47-5.41l-.07,4.53Z"/></g></g></g></svg>