<svg xmlns="http://www.w3.org/2000/svg" id="_лой_2" viewBox="0 0 34.89 23.17"><defs><style>.cls-1{fill:#313441;}</style></defs><g id="_лой_4"><g><path id="Logo0" class="cls-1" d="M3.77,15.28c0,1.33,.29,2.35,.67,2.97,.5,.81,1.25,1.15,2.01,1.15,.98,0,1.88-.24,3.61-2.64,1.39-1.92,3.02-4.62,4.12-6.31l1.86-2.86c1.29-1.99,2.79-4.2,4.51-5.7C21.97,.68,23.48,0,25,0,27.56,0,30,1.48,31.86,4.26c2.04,3.04,3.03,6.88,3.03,10.83,0,2.35-.46,4.08-1.25,5.44-.76,1.32-2.25,2.64-4.75,2.64v-3.76c2.14,0,2.67-1.97,2.67-4.21,0-3.21-.75-6.76-2.39-9.3-1.17-1.8-2.68-2.9-4.35-2.9-1.8,0-3.25,1.36-4.88,3.78-.87,1.29-1.76,2.86-2.75,4.63l-1.1,1.95c-2.21,3.92-2.77,4.81-3.87,6.28-1.94,2.58-3.59,3.55-5.76,3.55-2.58,0-4.21-1.12-5.22-2.8C.41,19,0,17.2,0,15.15l3.77,.13Z"/><path id="Logo1" class="cls-1" d="M2.97,4.53C4.7,1.86,7.19,0,10.05,0c1.66,0,3.3,.49,5.02,1.89,1.88,1.53,3.88,4.06,6.39,8.23l.9,1.49c2.16,3.61,3.4,5.46,4.12,6.34,.93,1.12,1.58,1.46,2.42,1.46,2.14,0,2.67-1.97,2.67-4.21l3.32-.1c0,2.35-.46,4.08-1.25,5.44-.76,1.32-2.25,2.64-4.75,2.64-1.55,0-2.93-.34-4.45-1.77-1.17-1.1-2.54-3.06-3.59-4.82l-3.13-5.23c-1.57-2.62-3.01-4.58-3.84-5.46-.9-.95-2.05-2.1-3.89-2.1-1.49,0-2.75,1.04-3.81,2.64l-3.21-1.91Z"/><path id="Logo2" class="cls-1" d="M9.99,3.79c-1.49,0-2.75,1.04-3.81,2.64-1.5,2.26-2.41,5.62-2.41,8.85,0,1.33,.29,2.35,.67,2.97l-3.21,2.12c-.83-1.37-1.23-3.17-1.23-5.22,0-3.73,1.02-7.62,2.97-10.62C4.7,1.86,7.19,0,10.05,0l-.06,3.79Z"/></g></g></svg>