<?xml version="1.0" encoding="UTF-8"?><svg id="_лой_2" xmlns="http://www.w3.org/2000/svg" viewBox="0 0 382.28 81.61"><defs><style>.cls-1{fill:#b7b7b7;opacity:.72;}.cls-2{fill:gray;}.cls-3{fill:#a3a3a3;}.cls-4{fill:#bbb;}.cls-5{fill:#7b7b7b;}</style></defs><g id="_лой_4"><g><path class="cls-1" d="M382.28,36.92v-6.72h-8.35v-10.45l-.28,.09-7.84,2.4-.15,.05v7.92h-12.38v-4.41c0-2.05,.46-3.63,1.36-4.67,.9-1.04,2.18-1.56,3.82-1.56,1.18,0,2.4,.28,3.63,.83l.31,.14v-7.08l-.14-.05c-1.15-.41-2.7-.62-4.64-.62-2.44,0-4.65,.53-6.58,1.58-1.93,1.05-3.45,2.55-4.51,4.46-1.06,1.91-1.6,4.11-1.6,6.55v4.85h-5.81v6.72h5.81v28.32h8.35v-28.32h12.38v18c0,7.41,3.5,11.17,10.39,11.17,1.13,0,2.33-.13,3.54-.39,1.24-.27,2.08-.53,2.58-.82l.11-.07v-6.79l-.34,.22c-.45,.3-1.02,.55-1.68,.73-.66,.19-1.22,.28-1.65,.28-1.62,0-2.81-.44-3.55-1.29-.75-.87-1.13-2.38-1.13-4.5v-16.55h8.35Zm-61.8,22.34c-3.03,0-5.42-1-7.1-2.98-1.69-1.99-2.55-4.82-2.55-8.43s.86-6.62,2.55-8.65c1.68-2.01,4.05-3.03,7.03-3.03s5.2,.97,6.85,2.9c1.66,1.93,2.5,4.82,2.5,8.58s-.79,6.73-2.35,8.68c-1.55,1.94-3.88,2.93-6.93,2.93m.37-29.91c-5.78,0-10.37,1.69-13.64,5.03-3.27,3.34-4.93,7.96-4.93,13.74s1.62,9.9,4.81,13.12c3.19,3.22,7.54,4.85,12.91,4.85s10.1-1.72,13.37-5.1c3.27-3.38,4.93-7.96,4.93-13.6s-1.56-10.02-4.62-13.21c-3.07-3.2-7.39-4.82-12.83-4.82m-32.03,0c-3.93,0-7.18,1.01-9.67,2.99-2.5,1.99-3.77,4.61-3.77,7.78,0,1.65,.27,3.11,.81,4.35,.54,1.24,1.38,2.34,2.49,3.26,1.11,.91,2.81,1.87,5.07,2.84,1.9,.78,3.32,1.44,4.22,1.97,.88,.51,1.5,1.02,1.86,1.53,.34,.49,.52,1.16,.52,1.99,0,2.35-1.76,3.5-5.39,3.5-1.35,0-2.88-.28-4.56-.84-1.67-.55-3.25-1.34-4.67-2.37l-.35-.25v8.03l.13,.06c1.18,.55,2.67,1,4.42,1.37,1.75,.36,3.34,.55,4.72,.55,4.27,0,7.7-1.01,10.21-3,2.52-2.01,3.8-4.69,3.8-7.96,0-2.36-.69-4.39-2.04-6.02-1.35-1.62-3.69-3.11-6.95-4.42-2.6-1.04-4.26-1.91-4.95-2.57-.66-.64-1-1.55-1-2.7,0-1.02,.41-1.84,1.27-2.5,.86-.66,2.05-1,3.55-1,1.39,0,2.81,.22,4.23,.65,1.41,.43,2.66,1.01,3.69,1.71l.34,.23v-7.62l-.13-.06c-.96-.41-2.22-.76-3.75-1.05-1.52-.28-2.91-.43-4.11-.43m-35.19,29.91c-3.03,0-5.42-1-7.1-2.98-1.69-1.99-2.55-4.82-2.55-8.43s.86-6.62,2.55-8.65c1.68-2.01,4.05-3.03,7.03-3.03s5.2,.97,6.85,2.9c1.66,1.93,2.5,4.82,2.5,8.58s-.79,6.73-2.35,8.68c-1.55,1.94-3.88,2.93-6.93,2.93m.37-29.91c-5.78,0-10.37,1.69-13.64,5.03-3.27,3.34-4.93,7.96-4.93,13.74s1.62,9.9,4.81,13.12c3.19,3.22,7.54,4.85,12.91,4.85s10.1-1.72,13.37-5.1c3.27-3.38,4.93-7.96,4.93-13.6s-1.56-10.02-4.62-13.21c-3.07-3.2-7.39-4.82-12.83-4.82m-31.24,6.91v-6.07h-8.24v35.04h8.24v-17.93c0-3.05,.69-5.55,2.05-7.44,1.35-1.87,3.14-2.82,5.33-2.82,.74,0,1.58,.12,2.48,.36,.89,.24,1.54,.5,1.92,.78l.35,.25v-8.31l-.13-.06c-.77-.33-1.85-.49-3.23-.49-2.07,0-3.93,.67-5.51,1.98-1.39,1.15-2.4,2.73-3.17,4.7h-.09Zm-23.01-6.91c-3.78,0-7.16,.81-10.02,2.41-2.88,1.6-5.1,3.89-6.61,6.8-1.51,2.9-2.27,6.29-2.27,10.07,0,3.31,.74,6.35,2.21,9.03,1.47,2.68,3.54,4.78,6.17,6.24,2.62,1.45,5.66,2.19,9.01,2.19,3.92,0,7.26-.78,9.94-2.33l.11-.06v-7.55l-.35,.25c-1.21,.88-2.57,1.59-4.03,2.1-1.46,.51-2.79,.77-3.95,.77-3.23,0-5.83-1.01-7.72-3.01-1.89-2-2.85-4.8-2.85-8.33s1-6.43,2.97-8.55c1.96-2.12,4.56-3.19,7.73-3.19,2.71,0,5.35,.92,7.85,2.73l.35,.25v-7.96l-.11-.06c-.94-.53-2.22-.96-3.81-1.29-1.58-.33-3.14-.49-4.61-.49m-24.58,.84h-8.24v35.04h8.24V30.2h0Zm-4.04-14.93c-1.36,0-2.54,.46-3.51,1.38-.98,.92-1.47,2.07-1.47,3.44s.49,2.48,1.46,3.37c.96,.89,2.15,1.34,3.53,1.34s2.57-.45,3.54-1.34c.98-.89,1.47-2.03,1.47-3.37s-.48-2.46-1.43-3.4c-.95-.94-2.16-1.41-3.58-1.41m-20.57,12.34v37.63h8.41V16.34h-11.64l-14.8,36.32-14.36-36.32h-12.12v48.9h7.91V27.61h.27l15.17,37.63h5.97l14.93-37.63h.27Z"/><path class="cls-5" d="M38.78,38.78H0V0H38.78V38.78Z"/><path class="cls-3" d="M81.6,38.78H42.82V0h38.78V38.78h0Z"/><path class="cls-2" d="M38.78,81.61H0V42.83H38.78v38.78Z"/><path class="cls-4" d="M81.6,81.61H42.82V42.83h38.78v38.78h0Z"/></g></g></svg>