<?xml version="1.0" encoding="UTF-8"?>
<svg id="_Слой_2" data-name="Слой 2" xmlns="http://www.w3.org/2000/svg" xmlns:xlink="http://www.w3.org/1999/xlink" viewBox="0 0 1428.66 714.64">
  <defs>
    <style>
      .cls-1, .cls-2, .cls-3, .cls-4, .cls-5, .cls-6, .cls-7, .cls-8 {
        font-family: GothamPro-Bold, 'Gotham Pro';
      }

      .cls-1, .cls-5, .cls-7, .cls-8 {
        opacity: .92;
      }

      .cls-1, .cls-6 {
        font-size: 21.57px;
      }

      .cls-9, .cls-10, .cls-11, .cls-12, .cls-13 {
        stroke-miterlimit: 10;
      }

      .cls-9, .cls-11 {
        stroke: #070707;
        stroke-width: 1.09px;
      }

      .cls-9, .cls-14 {
        fill: #30bb48;
      }

      .cls-15, .cls-3, .cls-4, .cls-8 {
        fill: #fff;
      }

      .cls-10 {
        stroke: #000;
        stroke-width: .67px;
      }

      .cls-10, .cls-11, .cls-12, .cls-16, .cls-13, .cls-17 {
        fill: none;
      }

      .cls-2, .cls-7 {
        font-size: 9.91px;
      }

      .cls-3 {
        font-size: 14.16px;
      }

      .cls-12, .cls-17 {
        stroke: #fff;
        stroke-linecap: round;
        stroke-width: 1.01px;
      }

      .cls-4, .cls-8 {
        font-size: 12.81px;
      }

      .cls-5 {
        font-size: 17.82px;
      }

      .cls-18 {
        clip-path: url(#clippath);
      }

      .cls-13 {
        stroke: #30bb48;
        stroke-width: 8.74px;
      }

      .cls-17 {
        stroke-linejoin: round;
      }
    </style>
    <clipPath id="clippath">
      <path class="cls-16" d="M0,0H455.5V234.09c-10.01,40.91-8.16,57.73-3.83,65.08,1.85,3.14,7.24,9.79,5.59,17-.82,3.59-3.84,9.27-1.76,12.73,.38,.63,1.31,1.83,1.14,3.39-.15,1.37-1.03,1.85-1.14,3.22-.12,1.52,.81,2.7,1.16,3.22,1.54,2.25,1.67,5.78,1.89,11.93,.21,5.57-.5,17.12-3.05,32.05v79.65H4.85C3.24,308.24,1.62,154.12,0,0Z"/>
    </clipPath>
  </defs>
  <g id="_Слой_4" data-name="Слой 4">
    <g>
      <circle class="cls-14" cx="1391.24" cy="175.23" r="20.56"/>
      <text class="cls-3" transform="translate(1379.62 179.7)"><tspan x="0" y="0">Q4</tspan></text>
      <circle class="cls-14" cx="250.02" cy="366.29" r="20.56"/>
      <circle class="cls-14" cx="376.79" cy="175.23" r="20.82"/>
      <text class="cls-8" transform="translate(361.17 179.13)"><tspan x="0" y="0">2021</tspan></text>
      <text class="cls-4" transform="translate(361.17 179.13)"><tspan x="0" y="0">2021</tspan></text>
      <text class="cls-3" transform="translate(239.41 370.76)"><tspan x="0" y="0">Q3</tspan></text>
      <circle class="cls-14" cx="630.65" cy="175.23" r="20.82"/>
      <circle class="cls-14" cx="757.79" cy="366.39" r="20.82"/>
      <circle class="cls-14" cx="883.98" cy="175.23" r="20.82"/>
      <circle class="cls-14" cx="1011.12" cy="366.39" r="20.82"/>
      <circle class="cls-14" cx="1137.31" cy="175.23" r="20.82"/>
      <circle class="cls-14" cx="1264.44" cy="366.39" r="20.82"/>
      <text class="cls-5" transform="translate(433.97 256.52)"><tspan x="0" y="0">2022</tspan></text>
      <line class="cls-10" x1="430.35" y1="265.22" x2="483.63" y2="265.22"/>
      <text class="cls-7" transform="translate(432.82 279.56)"><tspan x="0" y="0">Site </tspan><tspan x="0" y="11.89">creation</tspan></text>
      <text class="cls-5" transform="translate(560.16 256.52)"><tspan x="0" y="0">2022</tspan></text>
      <text class="cls-7" transform="translate(554.11 279.56)"><tspan x="0" y="0">Publication </tspan><tspan x="0" y="11.89">Whitepaper</tspan></text>
      <text class="cls-5" transform="translate(686.35 256.52)"><tspan x="0" y="0">2022</tspan></text>
      <line class="cls-10" x1="682.74" y1="265.22" x2="736.02" y2="265.22"/>
      <text class="cls-2" transform="translate(666.31 279.56)"><tspan x="0" y="0">SOCIAL </tspan><tspan x="0" y="11.89">Comms channels </tspan><tspan x="0" y="23.78">established</tspan></text>
      <text class="cls-5" transform="translate(812.55 256.52)"><tspan x="0" y="0">2022</tspan></text>
      <line class="cls-10" x1="808.93" y1="265.22" x2="862.21" y2="265.22"/>
      <text class="cls-2" transform="translate(808.93 279.56)"><tspan x="0" y="0">Search </tspan><tspan x="0" y="11.89">for partners</tspan></text>
      <text class="cls-5" transform="translate(938.74 256.52)"><tspan x="0" y="0">2022</tspan></text>
      <line class="cls-10" x1="935.13" y1="265.22" x2="988.41" y2="265.22"/>
      <text class="cls-2" transform="translate(932.18 279.56)"><tspan x="0" y="0">Private and</tspan><tspan x="0" y="11.89">public sales</tspan><tspan x="0" y="23.78">of NFT</tspan></text>
      <text class="cls-5" transform="translate(1064.93 256.52)"><tspan x="0" y="0">2022</tspan></text>
      <line class="cls-10" x1="1061.32" y1="265.22" x2="1114.6" y2="265.22"/>
      <text class="cls-2" transform="translate(1053.14 279.56)"><tspan x="0" y="0">Demo game </tspan><tspan x="0" y="11.89">demonstration</tspan></text>
      <text class="cls-5" transform="translate(1191.13 256.52)"><tspan x="0" y="0">2022</tspan></text>
      <line class="cls-10" x1="1187.51" y1="265.22" x2="1240.8" y2="265.22"/>
      <text class="cls-2" transform="translate(1183.02 279.56)"><tspan x="0" y="0">Participation </tspan><tspan x="0" y="11.89">in obtaining </tspan><tspan x="0" y="23.78">White List</tspan></text>
      <text class="cls-6" transform="translate(1313.49 274.25)"><tspan x="0" y="0">2022</tspan></text>
      <g>
        <g>
          <circle class="cls-17" cx="621.39" cy="177.06" r="6.12"/>
          <circle class="cls-17" cx="639.91" cy="177.06" r="6.12"/>
          <path class="cls-12" d="M634.01,163.53c1.34,1.84,2.89,4.33,4.16,7.48,.89,2.22,1.44,4.26,1.79,6.01"/>
          <path class="cls-17" d="M618.38,169.32c2.45,.34,5.56,.54,9.13,.24,2.96-.25,5.53-.79,7.62-1.38-2.3,1.97-5.1,4.08-8.42,6.09-1.92,1.16-3.78,2.14-5.53,2.97"/>
        </g>
        <path class="cls-15" d="M618.32,178.87c.05-.46,.17-1.17,.56-1.94,.16-.32,.68-1.35,1.58-1.87,1.24-.72,3.05-.39,4.59,.75-.28,.23-.62,.47-1.01,.69-.65,.37-1.27,.59-1.77,.73,.24,.04,.54,.06,.88,.03,.84-.08,1.45-.44,1.78-.67-.08,.27-.26,.78-.71,1.25-.43,.46-.9,.65-1.04,.71-.17,.06-.45,.16-1.07,.19-.92,.05-1.28-.1-1.98-.12-.43-.01-1.05,.02-1.8,.25Z"/>
        <path class="cls-15" d="M641.06,180.16c-.44-.14-1.11-.41-1.79-.94-.28-.22-1.18-.94-1.51-1.92-.46-1.36,.24-3.07,1.65-4.34,.17,.32,.33,.7,.48,1.13,.23,.72,.33,1.36,.36,1.88,.09-.23,.17-.52,.2-.85,.09-.84-.14-1.51-.3-1.88,.25,.13,.71,.41,1.08,.94,.36,.52,.46,1.01,.48,1.16,.03,.18,.06,.48-.03,1.09-.13,.91-.35,1.24-.51,1.92-.1,.42-.19,1.03-.11,1.82Z"/>
      </g>
      <line class="cls-10" x1="556.54" y1="265.22" x2="609.83" y2="265.22"/>
      <circle class="cls-14" cx="504.46" cy="366.39" r="20.82"/>
      <g>
        <g>
          <circle class="cls-17" cx="495.2" cy="368.21" r="6.12"/>
          <circle class="cls-17" cx="513.72" cy="368.21" r="6.12"/>
          <path class="cls-12" d="M507.82,354.69c1.34,1.84,2.89,4.33,4.16,7.48,.89,2.22,1.44,4.26,1.79,6.01"/>
          <path class="cls-17" d="M492.19,360.48c2.45,.34,5.56,.54,9.13,.24,2.96-.25,5.53-.79,7.62-1.38-2.3,1.97-5.1,4.08-8.42,6.09-1.92,1.16-3.78,2.14-5.53,2.97"/>
        </g>
        <path class="cls-15" d="M492.12,370.03c.05-.46,.17-1.17,.56-1.94,.16-.32,.68-1.35,1.58-1.87,1.24-.72,3.05-.39,4.59,.75-.28,.23-.62,.47-1.01,.69-.65,.37-1.27,.59-1.77,.73,.24,.04,.54,.06,.88,.03,.84-.08,1.45-.44,1.78-.67-.08,.27-.26,.78-.71,1.25-.43,.46-.9,.65-1.04,.71-.17,.06-.45,.16-1.07,.19-.92,.05-1.28-.1-1.98-.12-.43-.01-1.05,.02-1.8,.25Z"/>
        <path class="cls-15" d="M514.86,371.31c-.44-.14-1.11-.41-1.79-.94-.28-.22-1.18-.94-1.51-1.92-.46-1.36,.24-3.07,1.65-4.34,.17,.32,.33,.7,.48,1.13,.23,.72,.33,1.36,.36,1.88,.09-.23,.17-.52,.2-.85,.09-.84-.14-1.51-.3-1.88,.25,.13,.71,.41,1.08,.94,.36,.52,.46,1.01,.48,1.16,.03,.18,.06,.48-.03,1.09-.13,.91-.35,1.24-.51,1.92-.1,.42-.19,1.03-.11,1.82Z"/>
      </g>
      <g>
        <g>
          <circle class="cls-17" cx="874.48" cy="177.06" r="6.12"/>
          <circle class="cls-17" cx="893.01" cy="177.06" r="6.12"/>
          <path class="cls-12" d="M887.1,163.53c1.34,1.84,2.89,4.33,4.16,7.48,.89,2.22,1.44,4.26,1.79,6.01"/>
          <path class="cls-17" d="M871.48,169.32c2.45,.34,5.56,.54,9.13,.24,2.96-.25,5.53-.79,7.62-1.38-2.3,1.97-5.1,4.08-8.42,6.09-1.92,1.16-3.78,2.14-5.53,2.97"/>
        </g>
        <path class="cls-15" d="M871.41,178.87c.05-.46,.17-1.17,.56-1.94,.16-.32,.68-1.35,1.58-1.87,1.24-.72,3.05-.39,4.59,.75-.28,.23-.62,.47-1.01,.69-.65,.37-1.27,.59-1.77,.73,.24,.04,.54,.06,.88,.03,.84-.08,1.45-.44,1.78-.67-.08,.27-.26,.78-.71,1.25-.43,.46-.9,.65-1.04,.71-.17,.06-.45,.16-1.07,.19-.92,.05-1.28-.1-1.98-.12-.43-.01-1.05,.02-1.8,.25Z"/>
        <path class="cls-15" d="M894.15,180.16c-.44-.14-1.11-.41-1.79-.94-.28-.22-1.18-.94-1.51-1.92-.46-1.36,.24-3.07,1.65-4.34,.17,.32,.33,.7,.48,1.13,.23,.72,.33,1.36,.36,1.88,.09-.23,.17-.52,.2-.85,.09-.84-.14-1.51-.3-1.88,.25,.13,.71,.41,1.08,.94,.36,.52,.46,1.01,.48,1.16,.03,.18,.06,.48-.03,1.09-.13,.91-.35,1.24-.51,1.92-.1,.42-.19,1.03-.11,1.82Z"/>
      </g>
      <g>
        <g>
          <circle class="cls-17" cx="748.29" cy="368.21" r="6.12"/>
          <circle class="cls-17" cx="766.81" cy="368.21" r="6.12"/>
          <path class="cls-12" d="M760.91,354.69c1.34,1.84,2.89,4.33,4.16,7.48,.89,2.22,1.44,4.26,1.79,6.01"/>
          <path class="cls-17" d="M745.28,360.48c2.45,.34,5.56,.54,9.13,.24,2.96-.25,5.53-.79,7.62-1.38-2.3,1.97-5.1,4.08-8.42,6.09-1.92,1.16-3.78,2.14-5.53,2.97"/>
        </g>
        <path class="cls-15" d="M745.22,370.03c.05-.46,.17-1.17,.56-1.94,.16-.32,.68-1.35,1.58-1.87,1.24-.72,3.05-.39,4.59,.75-.28,.23-.62,.47-1.01,.69-.65,.37-1.27,.59-1.77,.73,.24,.04,.54,.06,.88,.03,.84-.08,1.45-.44,1.78-.67-.08,.27-.26,.78-.71,1.25-.43,.46-.9,.65-1.04,.71-.17,.06-.45,.16-1.07,.19-.92,.05-1.28-.1-1.98-.12-.43-.01-1.05,.02-1.8,.25Z"/>
        <path class="cls-15" d="M767.96,371.31c-.44-.14-1.11-.41-1.79-.94-.28-.22-1.18-.94-1.51-1.92-.46-1.36,.24-3.07,1.65-4.34,.17,.32,.33,.7,.48,1.13,.23,.72,.33,1.36,.36,1.88,.09-.23,.17-.52,.2-.85,.09-.84-.14-1.51-.3-1.88,.25,.13,.71,.41,1.08,.94,.36,.52,.46,1.01,.48,1.16,.03,.18,.06,.48-.03,1.09-.13,.91-.35,1.24-.51,1.92-.1,.42-.19,1.03-.11,1.82Z"/>
      </g>
      <g>
        <g>
          <circle class="cls-17" cx="1128.05" cy="177.06" r="6.12"/>
          <circle class="cls-17" cx="1146.57" cy="177.06" r="6.12"/>
          <path class="cls-12" d="M1140.67,163.53c1.34,1.84,2.89,4.33,4.16,7.48,.89,2.22,1.44,4.26,1.79,6.01"/>
          <path class="cls-17" d="M1125.04,169.32c2.45,.34,5.56,.54,9.13,.24,2.96-.25,5.53-.79,7.62-1.38-2.3,1.97-5.1,4.08-8.42,6.09-1.92,1.16-3.78,2.14-5.53,2.97"/>
        </g>
        <path class="cls-15" d="M1124.97,178.87c.05-.46,.17-1.17,.56-1.94,.16-.32,.68-1.35,1.58-1.87,1.24-.72,3.05-.39,4.59,.75-.28,.23-.62,.47-1.01,.69-.65,.37-1.27,.59-1.77,.73,.24,.04,.54,.06,.88,.03,.84-.08,1.45-.44,1.78-.67-.08,.27-.26,.78-.71,1.25-.43,.46-.9,.65-1.04,.71-.17,.06-.45,.16-1.07,.19-.92,.05-1.28-.1-1.98-.12-.43-.01-1.05,.02-1.8,.25Z"/>
        <path class="cls-15" d="M1147.71,180.16c-.44-.14-1.11-.41-1.79-.94-.28-.22-1.18-.94-1.51-1.92-.46-1.36,.24-3.07,1.65-4.34,.17,.32,.33,.7,.48,1.13,.23,.72,.33,1.36,.36,1.88,.09-.23,.17-.52,.2-.85,.09-.84-.14-1.51-.3-1.88,.25,.13,.71,.41,1.08,.94,.36,.52,.46,1.01,.48,1.16,.03,.18,.06,.48-.03,1.09-.13,.91-.35,1.24-.51,1.92-.1,.42-.19,1.03-.11,1.82Z"/>
      </g>
      <g>
        <g>
          <circle class="cls-17" cx="1001.85" cy="368.21" r="6.12"/>
          <circle class="cls-17" cx="1020.38" cy="368.21" r="6.12"/>
          <path class="cls-12" d="M1014.47,354.69c1.34,1.84,2.89,4.33,4.16,7.48,.89,2.22,1.44,4.26,1.79,6.01"/>
          <path class="cls-17" d="M998.85,360.48c2.45,.34,5.56,.54,9.13,.24,2.96-.25,5.53-.79,7.62-1.38-2.3,1.97-5.1,4.08-8.42,6.09-1.92,1.16-3.78,2.14-5.53,2.97"/>
        </g>
        <path class="cls-15" d="M998.78,370.03c.05-.46,.17-1.17,.56-1.94,.16-.32,.68-1.35,1.58-1.87,1.24-.72,3.05-.39,4.59,.75-.28,.23-.62,.47-1.01,.69-.65,.37-1.27,.59-1.77,.73,.24,.04,.54,.06,.88,.03,.84-.08,1.45-.44,1.78-.67-.08,.27-.26,.78-.71,1.25-.43,.46-.9,.65-1.04,.71-.17,.06-.45,.16-1.07,.19-.92,.05-1.28-.1-1.98-.12-.43-.01-1.05,.02-1.8,.25Z"/>
        <path class="cls-15" d="M1021.52,371.31c-.44-.14-1.11-.41-1.79-.94-.28-.22-1.18-.94-1.51-1.92-.46-1.36,.24-3.07,1.65-4.34,.17,.32,.33,.7,.48,1.13,.23,.72,.33,1.36,.36,1.88,.09-.23,.17-.52,.2-.85,.09-.84-.14-1.51-.3-1.88,.25,.13,.71,.41,1.08,.94,.36,.52,.46,1.01,.48,1.16,.03,.18,.06,.48-.03,1.09-.13,.91-.35,1.24-.51,1.92-.1,.42-.19,1.03-.11,1.82Z"/>
      </g>
      <g>
        <g>
          <circle class="cls-17" cx="1255.31" cy="368.21" r="6.12"/>
          <circle class="cls-17" cx="1273.83" cy="368.21" r="6.12"/>
          <path class="cls-12" d="M1267.93,354.69c1.34,1.84,2.89,4.33,4.16,7.48,.89,2.22,1.44,4.26,1.79,6.01"/>
          <path class="cls-17" d="M1252.3,360.48c2.45,.34,5.56,.54,9.13,.24,2.96-.25,5.53-.79,7.62-1.38-2.3,1.97-5.1,4.08-8.42,6.09-1.92,1.16-3.78,2.14-5.53,2.97"/>
        </g>
        <path class="cls-15" d="M1252.23,370.03c.05-.46,.17-1.17,.56-1.94,.16-.32,.68-1.35,1.58-1.87,1.24-.72,3.05-.39,4.59,.75-.28,.23-.62,.47-1.01,.69-.65,.37-1.27,.59-1.77,.73,.24,.04,.54,.06,.88,.03,.84-.08,1.45-.44,1.78-.67-.08,.27-.26,.78-.71,1.25-.43,.46-.9,.65-1.04,.71-.17,.06-.45,.16-1.07,.19-.92,.05-1.28-.1-1.98-.12-.43-.01-1.05,.02-1.8,.25Z"/>
        <path class="cls-15" d="M1274.97,371.31c-.44-.14-1.11-.41-1.79-.94-.28-.22-1.18-.94-1.51-1.92-.46-1.36,.24-3.07,1.65-4.34,.17,.32,.33,.7,.48,1.13,.23,.72,.33,1.36,.36,1.88,.09-.23,.17-.52,.2-.85,.09-.84-.14-1.51-.3-1.88,.25,.13,.71,.41,1.08,.94,.36,.52,.46,1.01,.48,1.16,.03,.18,.06,.48-.03,1.09-.13,.91-.35,1.24-.51,1.92-.1,.42-.19,1.03-.11,1.82Z"/>
      </g>
      <text class="cls-1" transform="translate(300.86 274.25)"><tspan x="0" y="0">2021</tspan></text>
      <g class="cls-18">
        <path class="cls-13" d="M1533.26,270.43c0,20.53-9.75,38.77-24.88,50.36-.64,.51-2.04,1.75-2.7,3.83-.37,1.16-.36,2.11-.36,2.38,0,4.06,3.02,7.42,6.94,7.95,.57,.08,1.15,.06,1.72,.01,.51-.05,1.08-.09,1.71-.13,0,0,1.22-.09,2.39-.09,17.65,0,31.96,14.31,31.96,31.96v31.96h-31.96c-17.65,0-31.96-14.31-31.96-31.96,0-4.75,1.44-9.51,1.44-9.51,1.88-6.04,5.15-10.24,7.41-12.64,1.28-1.36,2.11-3.13,2.19-4.99,.12-2.68-1.11-5.36-3.49-6.98-2.1-1.43-4.63-1.73-6.88-1.04h0c-5.39,1.49-11.06,2.28-16.92,2.28-35.01,0-63.39-28.38-63.39-63.39,0-20.53-9.75-38.77-24.88-50.36-.64-.51-2.04-1.75-2.7-3.83-.37-1.16-.36-2.11-.36-2.38,0-4.06,3.02-7.42,6.94-7.95,.57-.08,1.15-.06,1.72-.01,.51,.05,1.08,.09,1.71,.13,0,0,1.22,.09,2.39,.09,17.65,0,31.96-14.31,31.96-31.96v-31.96h-31.96c-17.65,0-31.96,14.31-31.96,31.96,0,4.75,1.44,9.51,1.44,9.51,1.88,6.04,5.15,10.24,7.41,12.64,1.28,1.36,2.11,3.13,2.19,4.99,.12,2.68-1.11,5.36-3.49,6.98-2.1,1.43-4.63,1.73-6.88,1.04h0c-5.39-1.49-11.06-2.28-16.92-2.28-35.01,0-63.39,28.38-63.39,63.39,0,20.53-9.75,38.77-24.88,50.36-.64,.51-2.04,1.75-2.7,3.83-.37,1.16-.36,2.11-.36,2.38,0,4.06,3.02,7.42,6.94,7.95,.57,.08,1.15,.06,1.72,.01,.51-.05,1.08-.09,1.71-.13,0,0,1.22-.09,2.39-.09,17.65,0,31.96,14.31,31.96,31.96v31.96h-31.96c-17.65,0-31.96-14.31-31.96-31.96,0-4.75,1.44-9.51,1.44-9.51,1.88-6.04,5.15-10.24,7.41-12.64,1.28-1.36,2.11-3.13,2.19-4.99,.12-2.68-1.11-5.36-3.49-6.98-2.1-1.43-4.63-1.73-6.88-1.04h0c-5.39,1.49-11.06,2.28-16.92,2.28-35.01,0-63.39-28.38-63.39-63.39,0-20.53-9.75-38.77-24.88-50.36-.64-.51-2.04-1.75-2.7-3.83-.37-1.16-.36-2.11-.36-2.38,0-4.06,3.02-7.42,6.94-7.95,.57-.08,1.15-.06,1.72-.01,.51,.05,1.08,.09,1.71,.13,0,0,1.22,.09,2.39,.09,17.65,0,31.96-14.31,31.96-31.96v-31.96h-31.96c-17.65,0-31.96,14.31-31.96,31.96,0,4.75,1.44,9.51,1.44,9.51,1.88,6.04,5.15,10.24,7.41,12.64,1.28,1.36,2.11,3.13,2.19,4.99,.12,2.68-1.11,5.36-3.49,6.98-2.1,1.43-4.63,1.73-6.88,1.04h0c-5.39-1.49-11.06-2.28-16.92-2.28-35.01,0-63.39,28.38-63.39,63.39,0,20.53-9.75,38.77-24.88,50.36-.64,.51-2.04,1.75-2.7,3.83-.37,1.16-.36,2.11-.36,2.38,0,4.06,3.02,7.42,6.94,7.95,.57,.08,1.15,.06,1.72,.01,.51-.05,1.08-.09,1.71-.13,0,0,1.22-.09,2.39-.09,17.65,0,31.96,14.31,31.96,31.96v31.96h-31.96c-17.65,0-31.96-14.31-31.96-31.96,0-4.75,1.44-9.51,1.44-9.51,1.88-6.04,5.15-10.24,7.41-12.64,1.28-1.36,2.11-3.13,2.19-4.99,.12-2.68-1.11-5.36-3.49-6.98-2.1-1.43-4.63-1.73-6.88-1.04h0c-5.39,1.49-11.06,2.28-16.92,2.28-35.01,0-63.39-28.38-63.39-63.39,0-20.53-9.75-38.77-24.88-50.36-.64-.51-2.04-1.75-2.7-3.83-.37-1.16-.36-2.11-.36-2.38,0-4.06,3.02-7.42,6.94-7.95,.57-.08,1.15-.06,1.72-.01,.51,.05,1.08,.09,1.71,.13,0,0,1.22,.09,2.39,.09,17.65,0,31.96-14.31,31.96-31.96v-31.96h-31.96c-17.65,0-31.96,14.31-31.96,31.96,0,4.75,1.44,9.51,1.44,9.51,1.88,6.04,5.15,10.24,7.41,12.64,1.28,1.36,2.11,3.13,2.19,4.99,.12,2.68-1.11,5.36-3.49,6.98-2.1,1.43-4.63,1.73-6.88,1.04h0c-5.39-1.49-11.06-2.28-16.92-2.28-35.01,0-63.39,28.38-63.39,63.39,0,20.53-9.75,38.77-24.88,50.36-.64,.51-2.04,1.75-2.7,3.83-.37,1.16-.36,2.11-.36,2.38,0,4.06,3.02,7.42,6.94,7.95,.57,.08,1.15,.06,1.72,.01,.51-.05,1.08-.09,1.71-.13,0,0,1.22-.09,2.39-.09,17.65,0,31.96,14.31,31.96,31.96v31.96h-31.96c-17.65,0-31.96-14.31-31.96-31.96,0-4.75,1.44-9.51,1.44-9.51,1.88-6.04,5.15-10.24,7.41-12.64,1.28-1.36,2.11-3.13,2.19-4.99,.12-2.68-1.11-5.36-3.49-6.98-2.1-1.43-4.63-1.73-6.88-1.04h0c-5.39,1.49-11.06,2.28-16.92,2.28-35.01,0-63.39-28.38-63.39-63.39,0-20.53-9.75-38.77-24.88-50.36-.64-.51-2.04-1.75-2.7-3.83-.37-1.16-.36-2.11-.36-2.38,0-4.06,3.02-7.42,6.94-7.95,.57-.08,1.15-.06,1.72-.01,.51,.05,1.08,.09,1.71,.13,0,0,1.22,.09,2.39,.09,17.65,0,31.96-14.31,31.96-31.96v-31.96h-31.96c-17.65,0-31.96,14.31-31.96,31.96,0,4.75,1.44,9.51,1.44,9.51,1.88,6.04,5.15,10.24,7.41,12.64,1.28,1.36,2.11,3.13,2.19,4.99,.12,2.68-1.11,5.36-3.49,6.98-2.1,1.43-4.63,1.73-6.88,1.04h0c-5.39-1.49-11.06-2.28-16.92-2.28-35.01,0-63.39,28.38-63.39,63.39,0,20.53-9.75,38.77-24.88,50.36-.64,.51-2.04,1.75-2.7,3.83-.37,1.16-.36,2.11-.36,2.38,0,4.06,3.02,7.42,6.94,7.95,.57,.08,1.15,.06,1.72,.01,.51-.05,1.08-.09,1.71-.13,0,0,1.22-.09,2.39-.09,17.65,0,31.96,14.31,31.96,31.96v31.96h-31.96c-17.65,0-31.96-14.31-31.96-31.96,0-4.75,1.44-9.51,1.44-9.51,1.88-6.04,5.15-10.24,7.41-12.64,1.28-1.36,2.11-3.13,2.19-4.99,.12-2.68-1.11-5.36-3.49-6.98-2.1-1.43-4.63-1.73-6.88-1.04h0c-5.39,1.49-11.06,2.28-16.92,2.28-35.01,0-63.39-28.38-63.39-63.39,0-20.53-9.75-38.77-24.88-50.36-.64-.51-2.04-1.75-2.7-3.83-.37-1.16-.36-2.11-.36-2.38,0-4.06,3.02-7.42,6.94-7.95,.57-.08,1.15-.06,1.72-.01,.51,.05,1.08,.09,1.71,.13,0,0,1.22,.09,2.39,.09,17.65,0,31.96-14.31,31.96-31.96v-31.96h-31.96c-17.65,0-31.96,14.31-31.96,31.96,0,4.75,1.44,9.51,1.44,9.51,1.88,6.04,5.15,10.24,7.41,12.64,1.28,1.36,2.11,3.13,2.19,4.99,.12,2.68-1.11,5.36-3.49,6.98-2.1,1.43-4.63,1.73-6.88,1.04h0c-5.39-1.49-11.06-2.28-16.92-2.28-35.01,0-63.39,28.38-63.39,63.39,0,20.53-9.75,38.77-24.88,50.36-.64,.51-2.04,1.75-2.7,3.83-.37,1.16-.36,2.11-.36,2.38,0,4.06,3.02,7.42,6.94,7.95,.57,.08,1.15,.06,1.72,.01,.51-.05,1.08-.09,1.71-.13,0,0,1.22-.09,2.39-.09,17.65,0,31.96,14.31,31.96,31.96v31.96h-31.96c-17.65,0-31.96-14.31-31.96-31.96,0-4.75,1.44-9.51,1.44-9.51,1.88-6.04,5.15-10.24,7.41-12.64,1.28-1.36,2.11-3.13,2.19-4.99,.12-2.68-1.11-5.36-3.49-6.98-2.1-1.43-4.63-1.73-6.88-1.04h0c-5.39,1.49-11.06,2.28-16.92,2.28-35.01,0-63.39-28.38-63.39-63.39,0-4.57-.48-11.24-2.85-18.85-5.41-17.36-16.87-27.36-20.49-30.31-2.48-2.02-16.72-13.29-37.5-14.18-4.03-.17-7.44,.08-9.91,.38"/>
      </g>
      <path class="cls-11" d="M1089.45,649.25c-37.67,0-68.31-30.65-68.31-68.31,0-5.94-.88-11.79-2.63-17.39-4.57-14.66-13.8-23.81-18.9-27.96-3.53-2.87-16.45-12.3-34.61-13.08-3.03-.13-6.09-.01-9.11,.35l-1.17-9.77c3.54-.42,7.14-.56,10.7-.41,21.18,.91,36.27,11.93,40.39,15.28,5.96,4.85,16.74,15.54,22.08,32.66,2.04,6.55,3.08,13.38,3.07,20.32,0,32.24,26.23,58.48,58.48,58.48,32.24,0,58.48-26.23,58.48-58.48,0-21.43,9.77-41.21,26.76-54.22,.36-.28,.83-.76,1.05-1.46,.13-.4,.13-.73,.13-.89,0-1.55-1.15-2.87-2.68-3.08-.07,0-.25-.02-.62,.01-.56,.05-1.18,.1-1.79,.13-.06,0-1.41,.1-2.74,.1-20.33,0-36.88-16.54-36.88-36.88v-36.88h36.88c20.33,0,36.88,16.54,36.88,36.88,0,5.42-1.58,10.71-1.66,10.96-1.66,5.35-4.61,10.39-8.52,14.55-.52,.55-.84,1.23-.86,1.84-.05,1.09,.46,2.1,1.35,2.71,.78,.54,1.75,.68,2.67,.4l.13-.04c5.91-1.63,12.04-2.46,18.23-2.46,37.67,0,68.31,30.65,68.31,68.31,0,18.35,8.37,35.28,23,46.49,1.44,1.13,3.37,3.13,4.34,6.2,.4,1.24,.59,2.53,.59,3.88,0,6.45-4.81,11.96-11.19,12.82-.88,.12-1.78,.13-2.83,.04-.47-.04-.99-.08-1.62-.12-.01,0-1.07-.07-2.04-.07-14.91,0-27.04,12.13-27.04,27.04v27.04s27.04,0,27.04,0c14.91,0,27.04-12.13,27.04-27.04,0-3.93-1.22-8.05-1.22-8.05-1.54-4.97-4.27-8.58-6.29-10.73-2.14-2.28-3.39-5.17-3.52-8.15-.2-4.51,1.91-8.72,5.63-11.26,3.25-2.21,7.25-2.84,11.02-1.71,5.04,1.39,10.27,2.09,15.55,2.09,32.24,0,58.48-26.23,58.48-58.48V270.43c0-18.35-8.37-35.28-22.95-46.45-1.49-1.17-3.41-3.17-4.39-6.24-.39-1.23-.59-2.53-.59-3.86,0-6.46,4.81-11.98,11.19-12.84,.88-.12,1.77-.13,2.82-.04,.47,.04,.99,.08,1.56,.12,.08,0,1.13,.08,2.1,.08,14.91,0,27.04-12.13,27.04-27.04v-27.04h-27.04c-14.91,0-27.04,12.13-27.04,27.04,0,3.92,1.21,8.04,1.23,8.08,1.53,4.94,4.26,8.55,6.28,10.69,2.14,2.28,3.39,5.17,3.52,8.15,.2,4.51-1.91,8.72-5.63,11.26-3.25,2.22-7.26,2.84-11.02,1.71-5.04-1.39-10.27-2.09-15.55-2.09-32.24,0-58.48,26.23-58.48,58.48,0,21.43-9.77,41.21-26.81,54.26-.31,.24-.78,.73-1.01,1.42-.13,.4-.13,.73-.13,.86,0,1.58,1.15,2.9,2.68,3.11,.07,0,.25,.02,.63-.01,.56-.05,1.18-.1,1.86-.14,0,0,1.34-.1,2.68-.1,20.33,0,36.88,16.54,36.88,36.88v36.88h-36.88c-20.33,0-36.88-16.54-36.88-36.88,0-5.42,1.58-10.71,1.65-10.93,1.67-5.39,4.62-10.42,8.53-14.58,.52-.55,.83-1.22,.86-1.84,.05-1.09-.46-2.1-1.35-2.71-.78-.54-1.76-.68-2.67-.4l-.13,.04c-5.91,1.63-12.04,2.46-18.22,2.46-37.67,0-68.31-30.65-68.31-68.31,0-18.35-8.37-35.28-22.95-46.45-1.49-1.17-3.41-3.17-4.39-6.24-.39-1.24-.59-2.53-.59-3.86,0-6.46,4.81-11.98,11.19-12.84,.88-.12,1.78-.13,2.82-.04,.47,.04,.99,.08,1.56,.12,.08,0,1.13,.08,2.1,.08,14.91,0,27.04-12.13,27.04-27.04v-27.04h-27.04c-14.91,0-27.04,12.13-27.04,27.04,0,3.92,1.21,8.04,1.23,8.08,1.53,4.94,4.26,8.55,6.28,10.69,2.14,2.28,3.39,5.17,3.52,8.15,.2,4.51-1.91,8.72-5.63,11.26-3.25,2.22-7.26,2.84-11.02,1.71-5.04-1.39-10.27-2.09-15.55-2.09-32.24,0-58.48,26.23-58.48,58.48,0,21.43-9.77,41.21-26.81,54.26-.31,.24-.78,.73-1.01,1.42-.13,.4-.13,.73-.13,.86,0,1.58,1.15,2.9,2.68,3.11,.07,0,.25,.02,.63-.01,.55-.05,1.18-.1,1.86-.14,0,0,1.34-.1,2.68-.1,20.33,0,36.88,16.54,36.88,36.88v36.88h-36.88c-20.33,0-36.88-16.54-36.88-36.88,0-5.42,1.58-10.71,1.65-10.93,1.67-5.39,4.62-10.42,8.53-14.58,.52-.56,.84-1.23,.86-1.84,.05-1.09-.46-2.1-1.35-2.71-.78-.54-1.75-.68-2.67-.4l-.13,.04c-5.91,1.63-12.04,2.46-18.23,2.46-37.67,0-68.31-30.65-68.31-68.31,0-18.35-8.37-35.28-22.95-46.45-1.49-1.17-3.41-3.17-4.39-6.24-.39-1.24-.59-2.53-.59-3.86,0-6.46,4.81-11.98,11.19-12.84,.88-.12,1.78-.13,2.82-.04,.47,.04,.99,.08,1.56,.12,.08,0,1.13,.08,2.1,.08,14.91,0,27.04-12.13,27.04-27.04v-27.04h-27.04c-14.91,0-27.04,12.13-27.04,27.04,0,3.92,1.21,8.04,1.23,8.08,1.53,4.94,4.26,8.55,6.28,10.69,2.14,2.28,3.39,5.17,3.52,8.15,.2,4.51-1.91,8.72-5.63,11.26-3.25,2.22-7.26,2.84-11.02,1.71-5.04-1.39-10.27-2.09-15.55-2.09-32.24,0-58.48,26.23-58.48,58.48,0,21.43-9.77,41.21-26.81,54.26-.31,.24-.78,.73-1.01,1.42-.13,.4-.13,.73-.13,.86,0,1.58,1.15,2.9,2.68,3.11,.08,0,.25,.02,.63-.01,.56-.05,1.18-.1,1.86-.14,0,0,1.34-.1,2.68-.1,20.33,0,36.88,16.54,36.88,36.88v36.88h-36.88c-20.33,0-36.88-16.54-36.88-36.88,0-5.42,1.58-10.71,1.65-10.93,1.67-5.39,4.62-10.42,8.53-14.58,.52-.55,.84-1.23,.86-1.84,.05-1.09-.46-2.1-1.35-2.71-.78-.54-1.76-.68-2.66-.4l-.13,.04c-5.91,1.63-12.04,2.46-18.23,2.46-37.67,0-68.31-30.65-68.31-68.31,0-18.35-8.37-35.28-22.95-46.45-1.49-1.17-3.42-3.17-4.39-6.24-.39-1.23-.59-2.53-.59-3.86,0-6.46,4.81-11.98,11.19-12.84,.88-.12,1.78-.13,2.82-.04,.47,.04,.99,.08,1.56,.12,.11,0,1.14,.08,2.1,.08,14.91,0,27.04-12.13,27.04-27.04v-27.04h-27.04c-14.91,0-27.04,12.13-27.04,27.04,0,3.92,1.21,8.04,1.23,8.08,1.53,4.94,4.26,8.55,6.28,10.69,2.14,2.28,3.39,5.17,3.52,8.15,.2,4.51-1.91,8.72-5.63,11.26-3.25,2.22-7.26,2.84-11.02,1.71-5.04-1.39-10.27-2.09-15.55-2.09-32.24,0-58.48,26.23-58.48,58.48,0,21.43-9.77,41.21-26.81,54.26-.31,.24-.78,.73-1.01,1.42-.13,.4-.13,.73-.13,.86,0,1.58,1.15,2.9,2.68,3.11,.07,0,.25,.02,.63-.01,.55-.05,1.18-.1,1.86-.14,0,0,1.34-.1,2.68-.1,20.33,0,36.88,16.54,36.88,36.88v36.88h-36.88c-20.33,0-36.88-16.54-36.88-36.88,0-5.42,1.58-10.71,1.65-10.93,1.67-5.39,4.62-10.42,8.53-14.58,.52-.55,.84-1.23,.86-1.84,.05-1.09-.46-2.1-1.35-2.71-.78-.54-1.76-.68-2.67-.4l-.13,.04c-5.91,1.63-12.04,2.46-18.23,2.46-37.67,0-68.31-30.65-68.31-68.31,0-18.35-8.37-35.28-22.95-46.45-1.49-1.17-3.41-3.17-4.39-6.24-.39-1.23-.59-2.53-.59-3.86,0-6.46,4.81-11.98,11.19-12.84,.88-.12,1.77-.13,2.82-.04,.47,.04,.99,.08,1.56,.12,.08,0,1.13,.08,2.1,.08,14.91,0,27.04-12.13,27.04-27.04v-27.04h-27.04c-14.91,0-27.04,12.13-27.04,27.04,0,3.92,1.21,8.04,1.23,8.08,1.53,4.94,4.26,8.55,6.28,10.69,2.14,2.28,3.39,5.17,3.52,8.15,.2,4.51-1.91,8.72-5.63,11.26-3.25,2.22-7.26,2.84-11.02,1.71-5.04-1.39-10.27-2.09-15.55-2.09-32.24,0-58.48,26.23-58.48,58.48,0,21.43-9.77,41.21-26.81,54.26-.31,.24-.78,.73-1.01,1.42-.13,.4-.13,.73-.13,.86,0,1.58,1.15,2.9,2.68,3.11,.07,0,.25,.02,.63-.01,.55-.05,1.18-.1,1.86-.14,0,0,1.34-.1,2.68-.1,20.33,0,36.88,16.54,36.88,36.88v36.88h-36.88c-20.33,0-36.88-16.54-36.88-36.88,0-5.42,1.58-10.71,1.65-10.93,1.67-5.39,4.62-10.42,8.53-14.58,.52-.55,.84-1.23,.86-1.84,.05-1.09-.46-2.1-1.35-2.71-.78-.54-1.76-.68-2.67-.4l-.13,.04c-5.91,1.63-12.04,2.46-18.23,2.46-37.67,0-68.31-30.65-68.31-68.31,0-5.94-.88-11.79-2.63-17.39-4.57-14.66-13.8-23.81-18.9-27.96-3.53-2.87-16.45-12.3-34.61-13.08-3.03-.13-6.09-.01-9.11,.35l-1.17-9.77c3.54-.42,7.14-.56,10.7-.41,21.18,.91,36.27,11.93,40.39,15.28,5.96,4.85,16.74,15.54,22.08,32.66,2.04,6.55,3.08,13.38,3.07,20.32,0,32.24,26.23,58.48,58.48,58.48,5.28,0,10.51-.7,15.55-2.09,3.76-1.13,7.77-.51,11.02,1.71,3.72,2.54,5.83,6.75,5.63,11.26-.13,2.97-1.38,5.87-3.52,8.15-2.02,2.15-4.75,5.75-6.29,10.73,0,0-1.22,4.12-1.22,8.05,0,14.91,12.13,27.04,27.04,27.04h27.04v-27.04c0-14.91-12.13-27.04-27.04-27.04-.97,0-2.03,.07-2.04,.07-.63,.04-1.15,.08-1.62,.12-1.05,.09-1.95,.08-2.83-.04-6.38-.87-11.19-6.38-11.19-12.82,0-1.34,.2-2.64,.59-3.88,.98-3.07,2.9-5.06,4.34-6.2,14.64-11.21,23-28.14,23-46.49,0-37.67,30.64-68.31,68.31-68.31,6.18,0,12.32,.83,18.23,2.46l.13,.04c.91,.28,1.88,.13,2.67-.4,.89-.61,1.4-1.62,1.35-2.71-.03-.61-.34-1.28-.86-1.84-3.91-4.16-6.86-9.19-8.52-14.55-.08-.26-1.66-5.55-1.66-10.96,0-20.33,16.54-36.88,36.88-36.88h36.88v36.88c0,20.33-16.54,36.88-36.88,36.88-1.33,0-2.69-.1-2.74-.1-.61-.03-1.23-.08-1.79-.13-.37-.03-.55-.02-.62-.01-1.53,.21-2.68,1.53-2.68,3.08,0,.15,0,.49,.13,.89,.22,.69,.7,1.18,1.05,1.46,16.99,13.01,26.76,32.79,26.76,54.22,0,32.24,26.23,58.48,58.48,58.48,5.28,0,10.51-.7,15.55-2.09,3.76-1.13,7.77-.51,11.02,1.71,3.72,2.54,5.83,6.75,5.63,11.26-.13,2.97-1.38,5.87-3.52,8.15-2.02,2.15-4.75,5.75-6.29,10.73,0,0-1.22,4.12-1.22,8.05,0,14.91,12.13,27.04,27.04,27.04h27.04v-27.04c0-14.91-12.13-27.04-27.04-27.04-.97,0-2.03,.07-2.04,.07-.63,.04-1.15,.08-1.62,.12-1.05,.09-1.95,.08-2.83-.04-6.38-.87-11.19-6.38-11.19-12.82,0-1.34,.2-2.64,.59-3.88,.98-3.07,2.9-5.07,4.35-6.2,14.64-11.21,23-28.14,23-46.49,0-37.67,30.64-68.31,68.31-68.31,6.18,0,12.31,.83,18.23,2.46l.13,.04c.91,.28,1.88,.13,2.67-.4,.89-.61,1.4-1.62,1.35-2.71-.03-.61-.34-1.28-.86-1.84-3.91-4.16-6.86-9.19-8.52-14.55-.08-.26-1.66-5.55-1.66-10.96,0-20.33,16.54-36.88,36.88-36.88h36.88v36.88c0,20.33-16.54,36.88-36.88,36.88-1.26,0-2.5-.08-2.74-.1-.62-.04-1.24-.08-1.8-.13-.37-.03-.55-.02-.62-.01-1.53,.21-2.68,1.53-2.68,3.08,0,.15,0,.49,.13,.89,.22,.69,.7,1.18,1.05,1.46,16.99,13.01,26.76,32.79,26.76,54.22,0,32.24,26.23,58.48,58.48,58.48,5.28,0,10.51-.7,15.55-2.09,3.76-1.13,7.78-.51,11.02,1.71,3.72,2.54,5.83,6.75,5.63,11.26-.13,2.98-1.38,5.87-3.52,8.15-2.02,2.15-4.75,5.75-6.29,10.73,0,0-1.22,4.12-1.22,8.05,0,14.91,12.13,27.04,27.04,27.04h27.04v-27.04c0-14.91-12.13-27.04-27.04-27.04-.97,0-2.03,.07-2.04,.07-.63,.04-1.15,.08-1.62,.12-1.05,.09-1.95,.08-2.83-.04-6.38-.87-11.19-6.38-11.19-12.82,0-1.35,.2-2.64,.59-3.88,.98-3.06,2.9-5.06,4.34-6.2,14.64-11.21,23-28.14,23-46.49,0-37.67,30.65-68.31,68.31-68.31,6.18,0,12.32,.83,18.23,2.46l.13,.04c.91,.28,1.88,.13,2.67-.4,.89-.61,1.4-1.62,1.35-2.71-.03-.61-.34-1.28-.86-1.84-3.91-4.16-6.86-9.19-8.52-14.55-.08-.26-1.66-5.55-1.66-10.96,0-20.33,16.54-36.88,36.88-36.88h36.88v36.88c0,20.33-16.54,36.88-36.88,36.88-1.33,0-2.69-.1-2.74-.1-.61-.03-1.23-.08-1.79-.13-.37-.03-.55-.02-.62-.01-1.53,.21-2.68,1.53-2.68,3.08,0,.15,0,.49,.13,.89,.22,.69,.7,1.18,1.05,1.46,16.99,13.01,26.76,32.79,26.76,54.22,0,32.24,26.23,58.48,58.48,58.48,5.28,0,10.51-.7,15.55-2.09,3.76-1.13,7.77-.51,11.02,1.71,3.72,2.54,5.83,6.75,5.63,11.26-.13,2.97-1.38,5.87-3.52,8.15-2.02,2.15-4.75,5.75-6.29,10.73,0,0-1.22,4.12-1.22,8.05,0,14.91,12.13,27.04,27.04,27.04h27.04v-27.04c0-14.91-12.13-27.04-27.04-27.04-.97,0-2.03,.07-2.04,.07-.63,.04-1.15,.08-1.62,.12-1.05,.09-1.95,.08-2.83-.04-6.38-.87-11.19-6.38-11.19-12.82,0-1.34,.2-2.64,.59-3.88,.98-3.07,2.9-5.07,4.35-6.2,14.64-11.21,23-28.14,23-46.49,0-37.67,30.64-68.31,68.31-68.31,6.18,0,12.32,.83,18.23,2.46l.13,.04c.91,.28,1.88,.13,2.67-.4,.89-.61,1.4-1.62,1.35-2.71-.03-.61-.34-1.28-.86-1.84-3.91-4.16-6.86-9.19-8.52-14.55-.08-.26-1.66-5.55-1.66-10.96,0-20.33,16.54-36.88,36.88-36.88h36.88v36.88c0,20.33-16.54,36.88-36.88,36.88-1.33,0-2.69-.1-2.74-.1-.61-.03-1.23-.08-1.79-.13-.37-.03-.55-.02-.62-.01-1.53,.21-2.68,1.53-2.68,3.08,0,.15,0,.49,.13,.89,.22,.69,.7,1.18,1.05,1.46,16.99,13.01,26.76,32.79,26.76,54.22,0,32.24,26.23,58.48,58.48,58.48,5.28,0,10.51-.7,15.55-2.09,3.76-1.13,7.78-.51,11.02,1.71,3.72,2.54,5.83,6.75,5.63,11.26-.13,2.97-1.38,5.87-3.52,8.14-2.02,2.15-4.75,5.75-6.3,10.73,0,0-1.22,4.12-1.22,8.05,0,14.91,12.13,27.04,27.04,27.04h27.04v-27.04c0-14.91-12.13-27.04-27.04-27.04-.97,0-2.03,.07-2.04,.07-.63,.04-1.15,.08-1.62,.12-1.05,.09-1.95,.08-2.83-.04-6.38-.87-11.19-6.38-11.19-12.82,0-1.34,.2-2.64,.59-3.88,.98-3.07,2.9-5.07,4.35-6.2,14.64-11.21,23-28.14,23-46.49,0-37.67,30.65-68.31,68.31-68.31,6.18,0,12.31,.83,18.22,2.46l.13,.04c.91,.28,1.88,.13,2.67-.4,.89-.61,1.4-1.62,1.35-2.71-.03-.61-.34-1.28-.86-1.84-3.91-4.16-6.86-9.19-8.52-14.55-.08-.26-1.66-5.55-1.66-10.96,0-20.33,16.54-36.88,36.88-36.88h36.88v36.88c0,20.33-16.54,36.88-36.88,36.88-1.33,0-2.69-.1-2.74-.1-.61-.03-1.23-.08-1.79-.13-.37-.03-.55-.02-.62-.01-1.53,.21-2.68,1.53-2.68,3.08,0,.16,0,.49,.13,.89,.22,.69,.7,1.18,1.05,1.46,16.99,13.01,26.76,32.79,26.76,54.22v310.51c0,37.67-30.64,68.31-68.31,68.31-6.18,0-12.32-.83-18.23-2.46l-.13-.04c-.91-.28-1.88-.13-2.67,.4-.89,.61-1.4,1.63-1.35,2.71,.03,.61,.34,1.28,.86,1.84,3.91,4.16,6.86,9.19,8.53,14.58,.07,.22,1.65,5.51,1.65,10.93,0,20.33-16.54,36.88-36.88,36.88h-36.88v-36.88c0-20.33,16.54-36.88,36.88-36.88,1.33,0,2.69,.1,2.68,.1,.68,.04,1.3,.09,1.86,.14,.38,.03,.55,.02,.63,.01,1.53-.21,2.68-1.53,2.68-3.11,0-.13,0-.46-.13-.86-.22-.69-.7-1.17-1.01-1.42-17.04-13.05-26.81-32.83-26.81-54.26,0-32.24-26.23-58.48-58.48-58.48-5.28,0-10.51,.7-15.55,2.09-3.76,1.13-7.78,.51-11.02-1.71-3.72-2.54-5.83-6.75-5.63-11.26,.13-2.97,1.38-5.87,3.52-8.15,2.02-2.15,4.75-5.75,6.28-10.69,.01-.04,1.23-4.17,1.23-8.08,0-14.91-12.13-27.04-27.04-27.04h-27.04s0,27.04,0,27.04c0,14.91,12.13,27.04,27.04,27.04,.97,0,2.03-.07,2.1-.08,.57-.03,1.09-.07,1.56-.12,1.05-.09,1.94-.08,2.82,.04,6.38,.87,11.19,6.38,11.19,12.84,0,1.33-.2,2.62-.59,3.86-.98,3.07-2.9,5.07-4.39,6.24-14.59,11.17-22.95,28.1-22.95,46.45,0,37.67-30.64,68.31-68.31,68.31Z"/>
      <circle class="cls-14" cx="1294.3" cy="677.49" r="20.82"/>
      <g>
        <g>
          <circle class="cls-17" cx="1285.16" cy="679.32" r="6.12"/>
          <circle class="cls-17" cx="1303.68" cy="679.32" r="6.12"/>
          <path class="cls-12" d="M1297.78,665.79c1.34,1.84,2.89,4.33,4.16,7.48,.89,2.22,1.44,4.26,1.79,6.01"/>
          <path class="cls-17" d="M1282.15,671.58c2.45,.34,5.56,.54,9.13,.24,2.96-.25,5.53-.79,7.62-1.38-2.3,1.97-5.1,4.08-8.42,6.09-1.92,1.16-3.78,2.14-5.53,2.97"/>
        </g>
        <path class="cls-15" d="M1282.09,681.13c.05-.46,.17-1.17,.56-1.94,.16-.32,.68-1.35,1.58-1.87,1.24-.72,3.05-.39,4.59,.75-.28,.23-.62,.47-1.01,.69-.65,.37-1.27,.59-1.77,.73,.24,.04,.54,.06,.88,.03,.84-.08,1.45-.44,1.78-.67-.08,.27-.26,.78-.71,1.25-.43,.46-.9,.65-1.04,.71-.17,.06-.45,.16-1.07,.19-.92,.05-1.28-.1-1.98-.12-.43-.01-1.05,.02-1.8,.25Z"/>
        <path class="cls-15" d="M1304.83,682.42c-.44-.14-1.11-.41-1.79-.94-.28-.22-1.18-.94-1.51-1.92-.46-1.36,.24-3.07,1.65-4.34,.17,.32,.33,.7,.48,1.13,.23,.72,.33,1.36,.36,1.88,.09-.23,.17-.52,.2-.85,.09-.84-.14-1.51-.3-1.88,.25,.13,.71,.41,1.08,.94,.36,.52,.46,1.01,.48,1.16,.03,.18,.06,.48-.03,1.09-.13,.91-.35,1.24-.51,1.92-.1,.42-.19,1.03-.11,1.82Z"/>
      </g>
      <g>
        <circle class="cls-14" cx="1167.51" cy="482.43" r="20.82"/>
        <g>
          <g>
            <circle class="cls-17" cx="1158.38" cy="484.26" r="6.12"/>
            <circle class="cls-17" cx="1176.9" cy="484.26" r="6.12"/>
            <path class="cls-12" d="M1171,470.73c1.34,1.84,2.89,4.33,4.16,7.48,.89,2.22,1.44,4.26,1.79,6.01"/>
            <path class="cls-17" d="M1155.37,476.52c2.45,.34,5.56,.54,9.13,.24,2.96-.25,5.53-.79,7.62-1.38-2.3,1.97-5.1,4.08-8.42,6.09-1.92,1.16-3.78,2.14-5.53,2.97"/>
          </g>
          <path class="cls-15" d="M1155.3,486.07c.05-.46,.17-1.17,.56-1.94,.16-.32,.68-1.35,1.58-1.87,1.24-.72,3.05-.39,4.59,.75-.28,.23-.62,.47-1.01,.69-.65,.37-1.27,.59-1.77,.73,.24,.04,.54,.06,.88,.03,.84-.08,1.45-.44,1.78-.67-.08,.27-.26,.78-.71,1.25-.43,.46-.9,.65-1.04,.71-.17,.06-.45,.16-1.07,.19-.92,.05-1.28-.1-1.98-.12-.43-.01-1.05,.02-1.8,.25Z"/>
          <path class="cls-15" d="M1178.04,487.36c-.44-.14-1.11-.41-1.79-.94-.28-.22-1.18-.94-1.51-1.92-.46-1.36,.24-3.07,1.65-4.34,.17,.32,.33,.7,.48,1.13,.23,.72,.33,1.36,.36,1.88,.09-.23,.17-.52,.2-.85,.09-.84-.14-1.51-.3-1.88,.25,.13,.71,.41,1.08,.94,.36,.52,.46,1.01,.48,1.16,.03,.18,.06,.48-.03,1.09-.13,.91-.35,1.24-.51,1.92-.1,.42-.19,1.03-.11,1.82Z"/>
        </g>
      </g>
      <text class="cls-5" transform="translate(1196.07 562.75)"><tspan x="0" y="0">2022</tspan></text>
      <line class="cls-10" x1="1192.46" y1="571.45" x2="1245.74" y2="571.45"/>
      <text class="cls-2" transform="translate(1188.43 585.79)"><tspan x="0" y="0">Lainching of</tspan><tspan x="0" y="11.89">application</tspan></text>
      <text class="cls-5" transform="translate(1326.31 562.75)"><tspan x="0" y="0">2022</tspan></text>
      <line class="cls-10" x1="1322.7" y1="571.45" x2="1375.98" y2="571.45"/>
      <text class="cls-2" transform="translate(1332.29 585.79)"><tspan x="0" y="0">Token </tspan><tspan x="1.58" y="11.89">listing</tspan></text>
      <circle class="cls-14" cx="952.17" cy="517.13" r="8.99"/>
      <circle class="cls-9" cx="63.92" cy="206.31" r="8.99"/>
    </g>
  </g>
</svg>