<?xml version="1.0" encoding="UTF-8"?><svg id="_лой_2" xmlns="http://www.w3.org/2000/svg" viewBox="0 0 272.12 81.61"><defs><style>.cls-1{fill:#b7b7b7;opacity:.72;}</style></defs><g id="_лой_4"><path class="cls-1" d="M40.81,0C18.27,0,0,18.27,0,40.81s18.27,40.81,40.81,40.81,40.81-18.27,40.81-40.81S63.35,0,40.81,0h0Zm18.71,58.85c-.73,1.2-2.3,1.58-3.49,.85h0c-9.58-5.86-21.64-7.18-35.85-3.94-1.37,.31-2.73-.55-3.05-1.92-.31-1.37,.54-2.73,1.91-3.04h0c15.54-3.55,28.88-2.02,39.63,4.55,1.2,.74,1.58,2.3,.84,3.5Zm4.99-11.11c-.92,1.5-2.88,1.97-4.38,1.05-10.97-6.74-27.69-8.69-40.66-4.76-1.68,.51-3.46-.44-3.97-2.12-.51-1.68,.44-3.46,2.12-3.97,14.82-4.5,33.24-2.32,45.84,5.42,1.5,.92,1.97,2.88,1.05,4.37h0Zm.43-11.57c-13.15-7.81-34.85-8.53-47.41-4.72-2.02,.61-4.15-.53-4.76-2.54-.61-2.02,.53-4.15,2.54-4.76,14.41-4.38,38.38-3.53,53.52,5.46,1.81,1.07,2.41,3.41,1.34,5.22h0c-1.07,1.82-3.42,2.42-5.23,1.34h0Zm46.08,1.5c-7.05-1.68-8.3-2.86-8.3-5.34,0-2.34,2.2-3.92,5.48-3.92s6.33,1.2,9.63,3.66c.1,.07,.22,.1,.35,.08,.12-.02,.23-.09,.31-.19l3.44-4.85c.14-.2,.1-.47-.09-.63-3.93-3.15-8.36-4.69-13.53-4.69-7.61,0-12.92,4.57-12.92,11.1,0,7,4.59,9.49,12.51,11.4,6.74,1.55,7.88,2.85,7.88,5.18,0,2.58-2.3,4.18-6,4.18-4.11,0-7.47-1.39-11.22-4.63-.09-.08-.21-.12-.34-.11-.13,0-.24,.07-.32,.16l-3.86,4.59c-.16,.19-.14,.48,.04,.64,4.37,3.9,9.74,5.95,15.53,5.95,8.2,0,13.49-4.48,13.49-11.41,.01-5.85-3.49-9.09-12.07-11.18h-.01Zm30.63-6.96c-3.55,0-6.47,1.4-8.87,4.27v-3.23c0-.25-.2-.46-.46-.46h-6.31c-.25,0-.46,.21-.46,.46v35.87c0,.25,.2,.46,.46,.46h6.31c.25,0,.46-.21,.46-.46v-11.32c2.41,2.69,5.32,4.02,8.87,4.02,6.6,0,13.29-5.08,13.29-14.8,0-9.72-6.68-14.8-13.28-14.8h0Zm5.95,14.8c0,4.95-3.05,8.4-7.41,8.4s-7.57-3.61-7.57-8.4,3.26-8.4,7.57-8.4c4.29,0,7.41,3.53,7.41,8.4h0Zm24.47-14.8c-8.5,0-15.16,6.55-15.16,14.91s6.62,14.75,15.06,14.75,15.21-6.52,15.21-14.85-6.64-14.8-15.11-14.8h0Zm0,23.25c-4.52,0-7.93-3.64-7.93-8.45s3.29-8.35,7.83-8.35,7.98,3.63,7.98,8.46-3.31,8.35-7.88,8.35h0Zm33.27-22.67h-6.94v-7.1c0-.25-.2-.46-.46-.46h-6.31c-.25,0-.46,.21-.46,.46v7.1h-3.03c-.25,0-.46,.21-.46,.46v5.42c0,.25,.2,.46,.46,.46h3.03v14.03c0,5.67,2.82,8.54,8.39,8.54,2.26,0,4.14-.47,5.91-1.47,.15-.08,.23-.23,.23-.4v-5.17c0-.16-.08-.31-.22-.39-.14-.09-.31-.09-.45-.02-1.21,.61-2.39,.89-3.7,.89-2.02,0-2.93-.92-2.93-2.98v-13.04h6.94c.25,0,.46-.21,.46-.46v-5.42c0-.25-.19-.45-.43-.46,0,0-.01,0-.02,0h0Zm24.19,.02v-.87c0-2.56,.98-3.71,3.19-3.71,1.32,0,2.37,.26,3.56,.66,.15,.05,.3,.02,.41-.06,.12-.09,.19-.23,.19-.38v-5.32c0-.2-.13-.38-.33-.44-1.25-.37-2.85-.75-5.24-.75-5.82,0-8.91,3.28-8.91,9.49v1.34h-3.03c-.25,0-.46,.21-.46,.46v5.45c0,.25,.21,.46,.46,.46h3.03v21.64c0,.26,.21,.46,.46,.46h6.31c.26,0,.46-.2,.46-.46v-21.64h5.89l9.02,21.64c-1.02,2.27-2.03,2.72-3.41,2.72-1.11,0-2.29-.33-3.48-.99-.11-.06-.24-.07-.37-.03-.12,.04-.22,.13-.27,.25l-2.14,4.69c-.1,.22-.01,.48,.2,.6,2.23,1.21,4.24,1.73,6.73,1.73,4.66,0,7.24-2.17,9.5-8.01l10.94-28.28c.06-.14,.04-.3-.05-.43-.08-.13-.22-.2-.38-.2h-6.57c-.2,0-.38,.13-.44,.31l-6.73,19.22-7.37-19.23c-.07-.18-.24-.3-.43-.3h-10.78Zm-14.02-.03h-6.31c-.25,0-.46,.21-.46,.46v27.52c0,.26,.21,.46,.46,.46h6.31c.25,0,.46-.2,.46-.46V31.76c0-.25-.21-.46-.46-.46h0Zm-3.12-12.53c-2.5,0-4.53,2.02-4.53,4.52s2.03,4.53,4.53,4.53,4.52-2.03,4.52-4.53-2.03-4.52-4.52-4.52Zm55.27,21.38c-2.49,0-4.44-2.01-4.44-4.44s1.97-4.46,4.46-4.46,4.44,2,4.44,4.44-1.97,4.47-4.46,4.47h0Zm.02-8.46c-2.28,0-4,1.81-4,4.02s1.71,4,3.97,4,4-1.81,4-4.02-1.71-4-3.97-4h0Zm.98,4.45l1.26,1.76h-1.06l-1.13-1.61h-.97v1.61h-.89v-4.66h2.08c1.09,0,1.8,.55,1.8,1.49,0,.76-.44,1.23-1.08,1.42h0Zm-.75-2.1h-1.15v1.47h1.15c.58,0,.92-.28,.92-.74,0-.48-.35-.74-.92-.74Z"/></g></svg>