<?xml version="1.0" encoding="UTF-8"?><svg id="_лой_2" xmlns="http://www.w3.org/2000/svg" viewBox="0 0 55.43 55.43"><defs><style>.cls-1{fill:#fff;}.cls-2{fill:#313441;}.cls-3{fill:#f0f1f3;}</style></defs><g id="_лой_4"><g><rect class="cls-3" x="0" width="55.43" height="55.43" rx="16.19" ry="16.19"/><g><path class="cls-2" d="M27.64,44.4c9.24,0,16.73-7.49,16.73-16.73s-7.49-16.73-16.73-16.73S10.91,18.42,10.91,27.66s7.49,16.73,16.73,16.73Z"/><path class="cls-1" d="M17.87,27.52s8.37-3.43,11.27-4.64c1.11-.48,4.88-2.03,4.88-2.03,0,0,1.74-.68,1.6,.97-.05,.68-.44,3.05-.82,5.61-.58,3.63-1.21,7.59-1.21,7.59,0,0-.1,1.11-.92,1.31s-2.18-.68-2.42-.87c-.19-.15-3.63-2.32-4.88-3.39-.34-.29-.73-.87,.05-1.55,1.74-1.6,3.82-3.58,5.08-4.84,.58-.58,1.16-1.93-1.26-.29-3.43,2.37-6.82,4.59-6.82,4.59,0,0-.77,.48-2.22,.05-1.45-.44-3.14-1.02-3.14-1.02,0,0-1.16-.73,.82-1.5h0Z"/></g></g></g></svg>