<svg xmlns="http://www.w3.org/2000/svg" id="_лой_2" viewBox="0 0 30.34 24.64"><defs><style>.cls-1{fill:#313441;}</style></defs><g id="_лой_4"><path class="cls-1" d="M27.22,6.14c.02,.27,.02,.54,.02,.81,0,8.22-6.26,17.69-17.69,17.69-3.52,0-6.8-1.02-9.55-2.79,.5,.06,.98,.08,1.5,.08,2.91,0,5.58-.98,7.72-2.66-2.73-.06-5.02-1.85-5.81-4.31,.39,.06,.77,.1,1.17,.1,.56,0,1.12-.08,1.64-.21-2.85-.58-4.99-3.08-4.99-6.1v-.08c.83,.46,1.79,.75,2.81,.79-1.67-1.12-2.77-3.02-2.77-5.18,0-1.16,.31-2.21,.85-3.14,3.06,3.77,7.66,6.24,12.82,6.51-.1-.46-.15-.94-.15-1.42,0-3.43,2.77-6.22,6.22-6.22,1.79,0,3.41,.75,4.54,1.96,1.41-.27,2.75-.79,3.95-1.5-.46,1.44-1.44,2.66-2.73,3.43,1.25-.13,2.46-.48,3.58-.96-.85,1.23-1.91,2.33-3.12,3.21h0Z"/></g></svg>