<?xml version="1.0" encoding="UTF-8"?><svg id="_лой_2" xmlns="http://www.w3.org/2000/svg" viewBox="0 0 55.43 55.43"><defs><style>.cls-1{fill:#313441;}.cls-2{fill:#f0f1f3;}</style></defs><g id="_лой_4"><g><rect class="cls-2" x="0" width="55.43" height="55.43" rx="16.19" ry="16.19"/><path class="cls-1" d="M42.08,20.21c.02,.32,.02,.64,.02,.97,0,9.83-7.48,21.15-21.15,21.15-4.21,0-8.12-1.22-11.42-3.34,.6,.07,1.17,.09,1.8,.09,3.48,0,6.67-1.17,9.23-3.18-3.27-.07-6.01-2.21-6.95-5.16,.46,.07,.92,.12,1.4,.12,.67,0,1.33-.09,1.96-.25-3.41-.69-5.96-3.68-5.96-7.3v-.09c.99,.55,2.14,.9,3.36,.94-2-1.33-3.31-3.61-3.31-6.19,0-1.38,.37-2.65,1.01-3.75,3.66,4.51,9.16,7.46,15.33,7.78-.12-.55-.18-1.13-.18-1.7,0-4.1,3.31-7.43,7.43-7.43,2.14,0,4.07,.9,5.43,2.35,1.68-.32,3.29-.94,4.72-1.8-.55,1.73-1.73,3.18-3.27,4.1,1.5-.16,2.95-.58,4.28-1.15-1.01,1.47-2.28,2.78-3.73,3.84h0Z"/></g></g></svg>