<?xml version="1.0" encoding="UTF-8"?><svg id="_лой_2" xmlns="http://www.w3.org/2000/svg" viewBox="0 0 298.34 81.61"><defs><style>.cls-1{fill:#b7b7b7;}.cls-2{opacity:.72;}</style></defs><g id="_лой_4"><g class="cls-2"><path class="cls-1" d="M43.54,34.24c-2.34,0-4.19,2.02-4.19,4.53s1.89,4.53,4.19,4.53,4.19-2.02,4.19-4.53-1.89-4.53-4.19-4.53Zm-15.01,0c-2.34,0-4.19,2.02-4.19,4.53s1.89,4.53,4.19,4.53,4.19-2.02,4.19-4.53c.04-2.51-1.85-4.53-4.19-4.53Z"/><path class="cls-1" d="M63.52,0H8.43C3.78,0,0,3.79,0,8.44V63.59c0,4.65,3.78,8.44,8.43,8.44H55.05l-2.18-7.53,5.26,4.86,4.98,4.57,8.88,7.7V8.44c-.04-4.65-3.82-8.44-8.47-8.44Zm-15.87,53.3s-1.48-1.77-2.71-3.29c5.39-1.52,7.44-4.86,7.44-4.86-1.69,1.11-3.29,1.89-4.73,2.43-2.06,.86-4.03,1.4-5.96,1.77-3.95,.74-7.57,.54-10.65-.04-2.34-.45-4.36-1.07-6.04-1.77-.95-.37-1.97-.82-3-1.4-.12-.08-.25-.12-.37-.21-.08-.04-.12-.08-.16-.08-.74-.41-1.15-.7-1.15-.7,0,0,1.97,3.25,7.2,4.82-1.23,1.56-2.75,3.37-2.75,3.37-9.09-.29-12.54-6.21-12.54-6.21,0-13.13,5.92-23.79,5.92-23.79,5.92-4.4,11.51-4.28,11.51-4.28l.41,.49c-7.4,2.1-10.77,5.35-10.77,5.35,0,0,.9-.49,2.43-1.15,4.4-1.93,7.89-2.43,9.33-2.59,.25-.04,.45-.08,.7-.08,2.51-.33,5.35-.41,8.31-.08,3.91,.45,8.1,1.61,12.38,3.91,0,0-3.25-3.09-10.24-5.19l.58-.66s5.63-.12,11.51,4.28c0,0,5.92,10.66,5.92,23.79,0-.04-3.45,5.89-12.54,6.17h0ZM109.74,17.61h-13.65v15.35l9.09,8.19v-14.9h4.85c3.08,0,4.6,1.48,4.6,3.87v11.4c0,2.39-1.44,3.99-4.6,3.99h-13.98v8.68h13.65c7.32,.04,14.19-3.62,14.19-12.02v-12.26c.04-8.56-6.83-12.31-14.14-12.31Zm71.54,24.57v-12.59c0-4.53,8.14-5.56,10.61-1.03l7.52-3.05c-2.96-6.5-8.35-8.4-12.83-8.4-7.32,0-14.56,4.24-14.56,12.47v12.59c0,8.31,7.24,12.47,14.39,12.47,4.6,0,10.11-2.26,13.16-8.19l-8.06-3.7c-1.97,5.06-10.24,3.83-10.24-.58h0Zm-24.88-10.87c-2.84-.62-4.73-1.65-4.85-3.42,.16-4.24,6.7-4.4,10.53-.33l6.04-4.65c-3.78-4.61-8.06-5.84-12.46-5.84-6.7,0-13.2,3.79-13.2,10.95s5.35,10.7,11.22,11.61c3,.41,6.33,1.61,6.25,3.66-.25,3.91-8.31,3.7-11.96-.74l-5.84,5.47c3.41,4.4,8.06,6.63,12.42,6.63,6.7,0,14.14-3.87,14.43-10.95,.41-8.93-6.09-11.19-12.58-12.39h0Zm-27.55,22.84h9.21V17.61h-9.21V54.16ZM284.15,17.61h-13.65v15.35l9.09,8.19v-14.9h4.85c3.08,0,4.6,1.48,4.6,3.87v11.4c0,2.39-1.44,3.99-4.6,3.99h-13.98v8.68h13.69c7.32,.04,14.19-3.62,14.19-12.02v-12.26c0-8.56-6.87-12.31-14.19-12.31h0Zm-66.98-.49c-7.57,0-15.09,4.12-15.09,12.55v12.47c0,8.35,7.57,12.55,15.17,12.55s15.09-4.2,15.09-12.55v-12.47c0-8.4-7.61-12.55-15.17-12.55Zm5.92,25.02c0,2.63-2.96,3.99-5.88,3.99s-5.92-1.28-5.92-3.99v-12.47c0-2.68,2.88-4.12,5.76-4.12s6.04,1.28,6.04,4.12v12.47Zm42.31-12.47c-.21-8.56-6.04-12.02-13.57-12.02h-14.6V54.2h9.33v-11.61h1.64l8.47,11.61h11.51l-9.95-12.55c4.4-1.4,7.15-5.23,7.15-11.98Zm-13.4,4.94h-5.43v-8.35h5.43c5.8,0,5.8,8.35,0,8.35Z"/></g></g></svg>